<?xml version="1.0" standalone="no"?>
<!DOCTYPE svg PUBLIC "-//W3C//DTD SVG 1.1//EN" "http://www.w3.org/Graphics/SVG/1.1/DTD/svg11.dtd" >
<svg xmlns="http://www.w3.org/2000/svg">
<metadata></metadata>
<defs>
<font id="archiveregular" horiz-adv-x="1341" >
<font-face units-per-em="2048" ascent="1536" descent="-512" />
<missing-glyph horiz-adv-x="555" />
<glyph horiz-adv-x="2048" />
<glyph horiz-adv-x="2048" />
<glyph unicode="&#xd;" horiz-adv-x="2048" />
<glyph unicode=" "  horiz-adv-x="555" />
<glyph unicode="&#x09;" horiz-adv-x="555" />
<glyph unicode="&#xa0;" horiz-adv-x="555" />
<glyph unicode="!" horiz-adv-x="659" d="M141 1305q0 25 14 34t46 9h274q35 0 48.5 -8.5t13.5 -34.5q0 -1 -2 -16q-22 -194 -89 -806q-5 -40 -13.5 -49.5t-43.5 -9.5h-100q-36 0 -45.5 10t-14.5 49q-56 529 -84 782q-4 38 -4 40zM166 59v228q0 33 14.5 46t44.5 13h228q30 0 44.5 -13t14.5 -46v-228 q0 -33 -14.5 -46t-44.5 -13h-228q-30 0 -44.5 13t-14.5 46z" />
<glyph unicode="&#x22;" horiz-adv-x="907" d="M117 825v463q0 30 12.5 45t46.5 15h141q33 0 46.5 -15t13.5 -45v-463q0 -30 -13 -44.5t-47 -14.5h-141q-35 0 -47 14.5t-12 44.5zM530 825v463q0 30 13 45t45 15h143q32 0 44.5 -15t12.5 -45v-463q0 -30 -12.5 -44.5t-44.5 -14.5h-143q-32 0 -45 14.5t-13 44.5z" />
<glyph unicode="#" horiz-adv-x="1347" d="M100.5 388q0.5 13 1.5 28l17 116q5 50 51 50h119l24 184h-118q-20 0 -29.5 8.5t-9 21t1.5 27.5l16 117q5 49 51 49h119l45 303q5 56 62 56h149q22 0 32.5 -10.5t10.5 -25.5v-30l-45 -293h242l45 303q5 56 59 56h152q22 0 32.5 -10.5t10 -25.5t-1.5 -30l-45 -293h118 q21 0 30.5 -8.5t8.5 -20.5t-2 -26l-14 -119q-8 -49 -53 -49h-119l-12 -92l-13 -92h119q21 0 30.5 -8.5t8.5 -21t-2 -26.5l-14 -118q-9 -50 -54 -50h-118l-45 -301q-5 -57 -62 -57h-149q-22 0 -32.5 10.5t-10 25.5t1.5 30l45 292h-242l-45 -301q-5 -57 -61 -57h-150 q-22 0 -32.5 10.5t-10.5 25.5v30l45 292h-119q-20 0 -29.5 8.5t-9 21.5zM543 582h241l23 184h-240z" />
<glyph unicode="$" horiz-adv-x="1239" d="M76 401q0 35 12 46.5t47 11.5h199q38 0 54.5 -11t19.5 -47q3 -44 38 -84q56 -67 201 -67q62 0 103 10t69.5 42t28.5 87q0 33 -19 56.5t-58 38.5t-77.5 25t-99.5 24.5t-102 27.5q-51 16 -88 29.5t-81 34.5t-75 42.5t-62 52.5t-50 66t-30.5 82t-11.5 101q0 83 31 152 t85 117t123.5 79.5t151.5 46.5v158q0 30 13 44.5t47 14.5h160q33 0 46 -14.5t13 -44.5v-164q77 -16 142.5 -46t118 -75t82.5 -109t30 -141q0 -36 -12 -46.5t-48 -10.5h-200q-14 0 -23 3.5t-16.5 15.5t-8.5 15t-8 21q-11 33 -43 62q-28 26 -76.5 40.5t-97.5 14.5 q-39 0 -77.5 -9.5t-70.5 -38t-32 -71.5q0 -35 31 -65.5t81.5 -51.5t99.5 -36t101 -29t70 -21q133 -41 191 -74q173 -98 173 -309q0 -179 -109.5 -286t-297.5 -134v-155q0 -30 -13 -45t-46 -15h-160q-33 0 -46.5 15t-13.5 45v160q-82 17 -154 52t-130 86.5t-91.5 124 t-33.5 156.5z" />
<glyph unicode="%" horiz-adv-x="1822" d="M113 942v180q0 121 86.5 197t210.5 76t210.5 -76t86.5 -197v-180q0 -120 -86.5 -195t-210.5 -75t-210.5 75t-86.5 195zM330 948q0 -34 23 -62t57 -28t55.5 28t21.5 62v168q0 34 -21.5 62t-55.5 28t-57 -28t-23 -62v-168zM437 17q-8 17 1 36l721 1315q28 62 74 62h119 q26 0 33.5 -17.5t-1.5 -36.5l-718 -1315q-32 -61 -76 -61h-119q-26 0 -34 17zM1116 305v180q0 120 86.5 195.5t210.5 75.5t210.5 -75.5t86.5 -195.5v-180q0 -121 -86.5 -196.5t-210.5 -75.5t-210.5 75.5t-86.5 196.5zM1335 311q0 -34 22 -62t56 -28t57 28t23 62v168 q0 34 -23 62t-57 28t-56 -28t-22 -62v-168z" />
<glyph unicode="&#x26;" horiz-adv-x="1476" d="M100 414q0 75 28.5 141.5t74.5 112.5t99.5 76.5t109.5 43.5l-265 283q-14 19 -14 41v176q0 30 13.5 45t46.5 15h63h719q33 0 46 -15t13 -45v-166q0 -30 -13 -44.5t-46 -14.5h-424l418 -455q17 29 34.5 55.5t30 45t15.5 22.5q23 35 59 35h227q28 0 34.5 -18.5t-5.5 -38.5 l-188 -324l288 -317q19 -20 7.5 -44t-39.5 -24h-228q-29 0 -46 9t-42 32l-104 100q-158 -169 -406 -172q-225 0 -365.5 120.5t-140.5 324.5zM406 412q0 -77 59.5 -118.5t134.5 -41.5q52 0 115 25.5t102 74.5l-207 223q-204 -6 -204 -163z" />
<glyph unicode="'" horiz-adv-x="493" d="M117 825v463q0 30 12.5 45t44.5 15h143q32 0 45 -15t13 -45v-463q0 -30 -13 -44.5t-45 -14.5h-143q-32 0 -44.5 14.5t-12.5 44.5z" />
<glyph unicode="(" horiz-adv-x="731" d="M135 535q0 419 182 804q18 41 56 41h219q22 0 30 -17t-1 -34q-94 -200 -135.5 -388.5t-43.5 -405.5q2 -216 43.5 -405t135.5 -388q9 -17 1 -34t-30 -17h-219q-38 0 -56 41q-182 385 -182 803z" />
<glyph unicode=")" horiz-adv-x="731" d="M109.5 -292q-7.5 17 1.5 34q93 199 134.5 387.5t43.5 405.5q-2 218 -43 406.5t-135 387.5q-9 17 -1.5 34t29.5 17h219q38 0 56 -41q182 -385 182 -804q0 -418 -182 -803q-18 -41 -56 -41h-219q-22 0 -29.5 17z" />
<glyph unicode="*" horiz-adv-x="1005" d="M103.5 979q-9.5 17 0.5 49l27 86q17 56 76 39l194 -74l-10 209q0 30 13.5 45t46.5 15h90q33 0 46 -15t13 -45l-8 -209l194 74q59 17 76 -39l27 -86q10 -32 0.5 -49t-37.5 -25l-201 -55l129 -164q37 -46 -12 -82l-74 -53q-31 -20 -48 -16t-36 28l-114 174l-115 -174 q-33 -48 -82 -12l-74 53q-49 36 -12 82l129 164l-201 55q-28 8 -37.5 25z" />
<glyph unicode="+" horiz-adv-x="1138" d="M100 565v160q0 33 15 46t45 13h276v275q0 30 13 44.5t47 14.5h159q34 0 47 -14.5t13 -44.5v-275h274q30 0 45 -13t15 -46v-160q0 -33 -15 -46t-45 -13h-274v-275q0 -30 -13 -44.5t-47 -14.5h-159q-34 0 -47 14.5t-13 44.5v275h-276q-30 0 -45 13t-15 46z" />
<glyph unicode="," horiz-adv-x="616" d="M135 59v228q0 33 15 46t45 13h227q30 0 44.5 -13t14.5 -46v-185q0 -58 -14 -96l-117 -237q-21 -37 -55 -37h-131q-20 0 -26 18.5t5 38.5l113 211h-61q-30 0 -45 13t-15 46z" />
<glyph unicode="-" horiz-adv-x="888" d="M106 467v160q0 33 15 46t45 13h557q30 0 44.5 -13t14.5 -46v-160q0 -33 -14.5 -46t-44.5 -13h-557q-30 0 -45 13t-15 46z" />
<glyph unicode="." horiz-adv-x="579" d="M117 59v228q0 33 14.5 46t44.5 13h227q30 0 45 -13t15 -46v-228q0 -33 -15 -46t-45 -13h-227q-30 0 -44.5 13t-14.5 46z" />
<glyph unicode="/" horiz-adv-x="821" d="M27 57l491 1307q22 55 64 55h174q34 0 43.5 -18.5t3.5 -38.5l-490 -1307q-6 -16 -12 -26t-19.5 -19.5t-31.5 -9.5h-176q-34 0 -43.5 18.5t-3.5 38.5z" />
<glyph unicode="0" horiz-adv-x="1226" d="M102 434v479q0 94 31.5 172.5t83 131.5t119 90t137 54t139.5 17t140.5 -17t138 -54t119 -90t83 -131.5t31.5 -172.5v-479q0 -94 -31.5 -172.5t-83 -131.5t-119 -90t-138 -54t-140.5 -17t-139.5 17t-137 54t-119 90t-83 131.5t-31.5 172.5zM401 479q0 -98 58.5 -160.5 t152.5 -62.5t153.5 62.5t59.5 160.5v389q0 98 -59.5 161t-153.5 63q-93 0 -152 -62.5t-59 -161.5v-389z" />
<glyph unicode="1" horiz-adv-x="1007" d="M135 59v168q0 30 13.5 45t46.5 15h174v549h-174q-34 0 -47 14t-13 45v166q0 31 13 45t47 14h45q19 0 37.5 6t41 22t36.5 53t14 91q1 31 16 42.5t43 11.5h199q28 0 43 -11.5t16 -42.5v-6v-999h143q33 0 46.5 -15t13.5 -45v-168q0 -30 -13 -44.5t-47 -14.5h-634 q-34 0 -47 14.5t-13 44.5z" />
<glyph unicode="2" horiz-adv-x="1144" d="M88 59v152q0 57 37 86q174 153 373 321q53 45 79 68.5t67.5 64.5t61.5 69t36 62.5t16 65.5q0 76 -48 114t-126 38q-84 0 -145.5 -60.5t-61.5 -148.5q0 -29 -11.5 -43t-41.5 -14h-181q-31 0 -43 13.5t-12 47.5q0 123 40 217.5t109.5 151t156.5 84.5t188 28q124 0 235 -53 t181.5 -152t70.5 -221q0 -44 -8 -84.5t-19 -72.5t-32 -66.5t-37.5 -56.5t-46.5 -53t-47 -47t-50 -46l-270 -237h432q33 0 46.5 -15t13.5 -45v-168q0 -30 -13 -44.5t-47 -14.5h-848q-35 0 -45 11.5t-10 47.5z" />
<glyph unicode="3" horiz-adv-x="1150" d="M57 356q0 39 11.5 50.5t46.5 11.5h182q26 0 35.5 -9t15.5 -36q11 -35 36 -60t57 -37.5t61.5 -18t58.5 -5.5q73 0 133 42.5t60 119.5q0 161 -217 161h-93q-34 0 -44.5 12t-10.5 48v131q0 42 25 70l215 225h-445q-33 0 -46 15t-13 44v166q0 30 13 45t46 15h783q33 0 46 -15 t13 -45v-166q0 -32 -22 -59l-256 -273q56 -13 109.5 -43t99.5 -75.5t74 -111.5t28 -142q0 -107 -40.5 -193.5t-111 -140.5t-162 -83t-196.5 -30q-128 0 -241 50.5t-182 140t-69 196.5z" />
<glyph unicode="4" horiz-adv-x="1257" d="M53 324v168q0 18 6.5 31.5t24.5 39.5l588 750q32 37 61 37h203q30 0 44.5 -13t14.5 -47v-739h123q34 0 47 -14.5t13 -44.5v-168q0 -30 -13.5 -45t-46.5 -15h-123v-205q0 -33 -14.5 -46t-44.5 -13h-193q-30 0 -44.5 13t-14.5 46v205h-571q-33 0 -46.5 15t-13.5 45z M389 551h295v385z" />
<glyph unicode="5" horiz-adv-x="1148" d="M57 358q0 38 11 49t45 11h184q26 0 35.5 -7t13.5 -32q18 -60 72.5 -92.5t124.5 -32.5q98 0 152.5 51.5t54.5 136.5q0 75 -59 130t-144 55q-68 0 -110.5 -18.5t-94.5 -57.5q-12 -8 -45 -8h-168q-33 0 -44 11t-11 50l51 682q2 31 13.5 45.5t43.5 14.5h727q33 0 46.5 -15 t13.5 -45v-168q0 -30 -13 -44.5t-47 -14.5h-508l-18 -240q32 20 91 35.5t120 15.5q197 0 326 -125t129 -323q0 -107 -43.5 -194.5t-116 -143t-162 -85.5t-184.5 -30q-197 0 -341.5 113.5t-144.5 275.5z" />
<glyph unicode="6" horiz-adv-x="1214" d="M80 442q0 93 33 193q35 101 135 256l254 397q35 58 98 58h260q27 0 35 -22t-8 -42l-275 -385q50 8 74 8q117 0 219 -56.5t163.5 -157t61.5 -220.5q0 -207 -153 -354.5t-369 -147.5q-76 0 -152 20.5t-143.5 61.5t-119.5 97t-82.5 132t-30.5 162zM391 457 q0 -86 61.5 -146.5t149.5 -60.5t150.5 60.5t62.5 146.5t-62.5 145.5t-150.5 59.5t-149.5 -59.5t-61.5 -145.5z" />
<glyph unicode="7" horiz-adv-x="1103" d="M125 1116v170q0 30 13 45t46 15h791q33 0 46 -15t13 -45v-160q0 -21 -5.5 -42t-10.5 -32l-6 -10l-477 -981q-16 -33 -33.5 -47t-48.5 -14h-260q-25 0 -31.5 16.5t8.5 44.5l516 996h-502q-33 0 -46 14.5t-13 44.5z" />
<glyph unicode="8" horiz-adv-x="1198" d="M70 387q0 206 225 326q-83 50 -130.5 125.5t-47.5 160.5q0 160 125 267.5t352 107.5q115 0 206.5 -30t149.5 -82t88.5 -119.5t30.5 -143.5q0 -85 -47.5 -160.5t-130.5 -125.5q225 -118 225 -326q0 -181 -136.5 -298.5t-385.5 -117.5q-250 0 -387 117.5t-137 298.5z M399 406q0 -69 56.5 -116.5t138.5 -47.5q80 0 137 47.5t57 116.5q0 68 -57 115.5t-137 47.5q-82 0 -138.5 -47t-56.5 -116zM436 989q0 -28 13.5 -58t51.5 -55.5t93 -25.5q78 0 118 46t40 93q0 61 -46.5 103.5t-111.5 42.5q-66 0 -112 -42.5t-46 -103.5z" />
<glyph unicode="9" horiz-adv-x="1210" d="M80 874q0 207 153 354.5t369 147.5q76 0 152 -20.5t143.5 -61.5t119.5 -97t82.5 -132t30.5 -162q0 -95 -32 -192q-35 -101 -135 -256l-254 -398q-35 -57 -99 -57h-260q-27 0 -34.5 21.5t8.5 41.5l274 386q-56 -9 -74 -9q-117 0 -219 56.5t-163.5 157t-61.5 220.5z M395 889q0 -86 62.5 -145.5t150.5 -59.5t149.5 59.5t61.5 145.5t-61.5 146.5t-149.5 60.5t-150.5 -60.5t-62.5 -146.5z" />
<glyph unicode=":" horiz-adv-x="626" d="M164 59v228q0 33 14.5 46t44.5 13h228q30 0 44.5 -13t14.5 -46v-228q0 -33 -14.5 -46t-44.5 -13h-228q-30 0 -44.5 13t-14.5 46zM164 625v227q0 33 14.5 46t44.5 13h228q30 0 44.5 -13t14.5 -46v-227q0 -34 -14.5 -47t-44.5 -13h-228q-30 0 -44.5 13t-14.5 47z" />
<glyph unicode=";" horiz-adv-x="632" d="M170 59v228q0 33 14.5 46t44.5 13h228q30 0 44.5 -13t14.5 -46v-187q0 -56 -14 -94l-117 -237q-21 -37 -55 -37h-131q-20 0 -25.5 17.5t6.5 37.5l111 213h-62q-30 0 -44.5 13t-14.5 46zM170 631v211q0 43 12.5 56t50.5 13h220q38 0 50.5 -13t12.5 -56v-211 q0 -41 -12 -53.5t-51 -12.5h-220q-39 0 -51 12.5t-12 53.5z" />
<glyph unicode="&#x3c;" horiz-adv-x="1159" d="M109 420v139q0 67 45 84l831 328q15 6 28.5 7t25.5 -8t12 -32v-184q0 -23 -10.5 -39t-20 -21t-26.5 -12q-3 -1 -5 -2l-522 -191l522 -190q38 -15 50 -31q12 -17 12 -43v-182q0 -33 -23.5 -39.5t-42.5 4.5l-831 328q-45 17 -45 84z" />
<glyph unicode="=" horiz-adv-x="1148" d="M100 336v160q0 33 15 46t45 13h827q30 0 45 -13t15 -46v-160q0 -33 -15 -46.5t-45 -13.5h-827q-30 0 -45 13.5t-15 46.5zM100 819v160q0 33 15 46t45 13h827q30 0 45 -13t15 -46v-160q0 -33 -15 -46t-45 -13h-827q-30 0 -45 13t-15 46z" />
<glyph unicode="&#x3e;" horiz-adv-x="1159" d="M109 43v182q0 19 5 32t17.5 21.5t17.5 11.5t21 9l522 190l-522 191q-16 6 -21 9t-17.5 11.5t-17.5 21.5t-5 32v184q0 23 11.5 32t25 8t28.5 -7l832 -328q45 -17 45 -84v-139q0 -67 -45 -84l-832 -328q-19 -11 -42 -4.5t-23 39.5z" />
<glyph unicode="?" horiz-adv-x="1118" d="M109 973q5 53 21 104.5t52 107t87 96.5t132.5 68t182.5 27q93 0 176.5 -23t150.5 -67.5t106.5 -118t39.5 -166.5q0 -51 -15.5 -95t-45.5 -78.5t-55 -56.5t-62 -48q-37 -25 -57 -41t-47.5 -44.5t-40.5 -63t-13 -76.5q0 -38 -13.5 -52t-52.5 -14h-170q-37 0 -51 16.5 t-14 49.5q0 106 25.5 174t82.5 127q22 23 60.5 47.5t66.5 40.5t50 43t22 59q0 49 -41.5 81t-99.5 32q-71 0 -116 -40t-58 -89q-4 -20 -8.5 -32t-18.5 -22t-37 -10h-205q-23 0 -28.5 13t-5.5 51zM391 59v228q0 33 15 46t45 13h227q30 0 44.5 -13t14.5 -46v-228 q0 -33 -14.5 -46t-44.5 -13h-227q-30 0 -45 13t-15 46z" />
<glyph unicode="@" horiz-adv-x="1705" d="M207 338v481q0 129 24.5 218t92.5 157q69 69 168 93t225 24h254q123 0 215 -23.5t162 -93.5q68 -68 92 -156.5t24 -218.5v-758q0 -21 -11.5 -41t-37.5 -20h-174q-61 0 -61 47v21q-82 -72 -195 -72q-135 0 -221 80q-58 56 -73 129.5t-15 214.5q0 137 15 202.5t73 122.5 q85 82 219 82q108 0 186 -63v45q0 111 -53 164q-55 55 -166 55h-213q-125 0 -180 -55q-31 -31 -42 -69t-11 -95v-453q0 -75 35 -118q11 -13 4.5 -36t-25.5 -38l-151 -113q-13 -10 -38 -9t-36 15q-47 61 -66.5 125t-19.5 156zM926 354q0 -54 33.5 -88.5t84.5 -34.5 q54 0 89.5 34.5t35.5 88.5v103q0 55 -35.5 90t-89.5 35q-51 0 -84.5 -35t-33.5 -90v-103z" />
<glyph unicode="A" d="M36 19q-3 8 -4 15q0 11 7 23l455 1227q12 33 31.5 48.5t52.5 15.5h196q33 0 51.5 -15t32.5 -49l453 -1227q7 -11 7 -23q0 -8 -4 -15q-8 -19 -38 -19h-215q-34 0 -50 12.5t-28 48.5l-57 162h-502l-57 -162q-12 -36 -28 -48.5t-50 -12.5h-215q-30 0 -38 19zM522 510h307 l-153 453z" />
<glyph unicode="B" horiz-adv-x="1406" d="M152 59v1231q0 30 13 45t46 15h573q121 0 215 -30.5t150 -83t84.5 -118t28.5 -139.5q0 -58 -14.5 -107.5t-33 -78.5t-42.5 -52t-37 -30.5t-23 -12.5q10 -4 26 -12.5t46.5 -34t54.5 -57.5t42.5 -85.5t18.5 -115.5q0 -190 -133 -291.5t-354 -101.5h-602q-33 0 -46 14.5 t-13 44.5zM473 291h344q158 0 158 133q0 125 -170 125h-47q-34 0 -47 14.5t-13 44.5v156q0 30 13 44.5t47 14.5h26q170 0 170 123q0 65 -42 90t-128 25h-311v-770z" />
<glyph unicode="C" horiz-adv-x="1294" d="M109 432v483q0 93 33.5 171.5t89 131t127.5 89.5t147.5 54t150.5 17q97 0 187 -25t164.5 -71.5t123 -122.5t58.5 -170q0 -36 -13.5 -47.5t-50.5 -11.5h-196q-19 0 -30 8.5t-20 29.5t-12 25q-33 52 -81 75.5t-130 23.5q-103 0 -165 -55t-62 -150v-426q0 -97 62 -151 t165 -54q88 0 146 34.5t69 104.5q3 20 5 29.5t8 22t16.5 17.5t26.5 5h200q33 0 47.5 -16.5t14.5 -53.5q0 -77 -31 -146t-83.5 -120t-121 -88.5t-145 -56.5t-152.5 -19q-75 0 -150.5 17t-147.5 54t-127.5 89.5t-89 131t-33.5 171.5z" />
<glyph unicode="D" horiz-adv-x="1331" d="M152 59v1229q0 30 13 45t46 15h459q75 0 151 -17t148.5 -54t128 -89.5t89.5 -130.5t34 -170v-426q0 -93 -34 -171t-89.5 -130.5t-128 -89.5t-148.5 -53.5t-151 -16.5h-459q-33 0 -46 14.5t-13 44.5zM473 285h197q103 0 166 54t63 150v369q0 95 -63 150t-166 55h-197v-778 z" />
<glyph unicode="E" horiz-adv-x="1284" d="M152 59v1229q0 30 13 45t46 15h883q33 0 46 -15t13 -45v-170q0 -30 -13 -44.5t-46 -14.5h-619v-223h549q33 0 46 -15t13 -45v-160q0 -30 -13 -44.5t-46 -14.5h-549v-270h653q33 0 46.5 -15t13.5 -45v-168q0 -30 -13 -44.5t-47 -14.5h-917q-33 0 -46 14.5t-13 44.5z" />
<glyph unicode="F" horiz-adv-x="1232" d="M152 59v1229q0 30 13 45t46 15h881q33 0 46 -15t13 -45v-168q0 -30 -13 -44.5t-46 -14.5h-619v-240h533q33 0 46 -14.5t13 -44.5v-162q0 -30 -13 -44.5t-46 -14.5h-533v-480q0 -39 -11.5 -50t-47.5 -11h-203q-33 0 -46 14.5t-13 44.5z" />
<glyph unicode="G" horiz-adv-x="1323" d="M111 414v504q0 94 34 172t90 130.5t128.5 88.5t148 52.5t150.5 16.5q78 0 155.5 -17t148.5 -53t126 -85t87.5 -118.5t32.5 -148.5q0 -36 -11.5 -46.5t-47.5 -10.5h-199q-20 0 -32 7.5t-15 15.5t-6.5 24.5t-5.5 22.5q-19 53 -78 89t-155 36q-101 0 -163.5 -61.5 t-62.5 -160.5v-411q0 -97 61.5 -152t164.5 -55q106 0 166.5 53t60.5 166h-184q-34 0 -47 14.5t-13 44.5v160q0 30 13.5 45t46.5 15h448q33 0 46 -15t13 -45v-297q-5 -85 -41.5 -157t-92.5 -120.5t-127 -83t-144 -50t-145 -15.5q-76 0 -150.5 15t-147.5 49.5t-128.5 84.5 t-90 126.5t-34.5 169.5z" />
<glyph unicode="H" horiz-adv-x="1402" d="M152 59v1229q0 34 14.5 47t44.5 13h203q31 0 45 -13t14 -47v-463h457v463q0 34 14.5 47t44.5 13h203q30 0 44.5 -13t14.5 -47v-1229q0 -33 -14.5 -46t-44.5 -13h-203q-30 0 -44.5 13t-14.5 46v463h-457v-463q0 -34 -14 -46.5t-45 -12.5h-203q-30 0 -44.5 13t-14.5 46z " />
<glyph unicode="I" horiz-adv-x="909" d="M98 59v162q0 30 13.5 45t46.5 15h129v782h-125q-34 0 -47 14.5t-13 44.5v166q0 30 13.5 45t46.5 15h569q33 0 46.5 -15t13.5 -45v-166q0 -30 -13 -44.5t-47 -14.5h-123v-782h129q33 0 46.5 -15t13.5 -45v-162q0 -30 -13 -44.5t-47 -14.5h-579q-34 0 -47 14.5t-13 44.5z " />
<glyph unicode="J" horiz-adv-x="1187" d="M61 442q0 9 2 19.5t14.5 23.5t33.5 13h217q21 0 33.5 -9.5t15 -17.5t2.5 -16q4 -87 47.5 -128.5t116.5 -41.5q98 0 142 50.5t44 149.5v607h-358q-35 0 -47.5 14.5t-12.5 44.5v170q0 30 12.5 44.5t47.5 14.5h620q34 0 47 -14.5t13 -44.5v-881q0 -115 -44.5 -202.5 t-119 -138t-161.5 -75t-183 -24.5q-103 0 -190.5 29t-152.5 83.5t-102 139t-37 190.5z" />
<glyph unicode="K" horiz-adv-x="1339" d="M152 59v1229q0 34 14 47t45 13h203q28 0 42.5 -13.5t14.5 -46.5v-457l424 467q30 33 48 41.5t54 8.5h277q28 0 32 -22q1 -5 0 -9q0 -16 -12 -27l-460 -499l440 -725q14 -20 5.5 -43t-36.5 -23h-250q-35 0 -57.5 16t-44.5 50q-182 307 -293 491l-127 -133v-365 q0 -33 -14.5 -46t-42.5 -13h-203q-31 0 -45 12.5t-14 46.5z" />
<glyph unicode="L" horiz-adv-x="1191" d="M152 59v1229q0 34 14.5 47t44.5 13h203q30 0 44.5 -13t14.5 -47v-1001h590q33 0 46 -15t13 -45v-168q0 -30 -13 -44.5t-46 -14.5h-852q-33 0 -46 14.5t-13 44.5z" />
<glyph unicode="M" horiz-adv-x="1570" d="M152 59v1231q0 30 13 45t46 15h203q25 0 42.5 -8.5t24 -15.5t16.5 -25.5t11 -20.5l280 -504l283 504l8 16t11.5 20t14.5 16t24.5 14t33.5 4h197q33 0 46 -15t13 -45v-1231q0 -33 -14.5 -46t-44.5 -13h-197q-30 0 -44.5 13t-14.5 46v695l-205 -359q-27 -43 -59 -43h-103 q-30 0 -57 43l-207 359v-695q0 -33 -14.5 -46t-44.5 -13h-203q-30 0 -44.5 13t-14.5 46z" />
<glyph unicode="N" horiz-adv-x="1396" d="M152 59v1229q0 30 13 45t46 15h192q22 0 39 -9t25 -19t23 -33l6 -9l434 -700v710q0 34 14.5 47t44.5 13h197q30 0 44.5 -13t14.5 -47v-1229q0 -30 -13 -44.5t-46 -14.5h-187q-8 0 -15.5 1t-14 3.5t-11 4t-10 7.5t-8.5 8t-8.5 10t-7.5 10.5t-8.5 12.5t-8.5 13l-434 702 v-713q0 -33 -14.5 -46t-44.5 -13h-203q-30 0 -44.5 13t-14.5 46z" />
<glyph unicode="O" horiz-adv-x="1320" d="M113 432v483q0 94 33.5 172.5t88.5 131t126.5 89.5t147 53.5t150.5 16.5t151 -16.5t148.5 -53.5t128 -89.5t89.5 -131t34 -172.5v-483q0 -94 -34 -172.5t-89.5 -131t-128 -89.5t-148.5 -53.5t-151 -16.5t-150.5 16.5t-147 53.5t-126.5 89.5t-88.5 131t-33.5 172.5z M432 461q0 -97 62.5 -152t164.5 -55q103 0 166.5 55t63.5 152v426q0 97 -63.5 152t-166.5 55q-102 0 -164.5 -55t-62.5 -152v-426z" />
<glyph unicode="P" horiz-adv-x="1286" d="M152 59v1229q0 30 13 45t46 15h461q258 0 397 -129t139 -347t-140 -345.5t-398 -127.5h-197v-340q0 -33 -14.5 -46t-44.5 -13h-203q-30 0 -44.5 13t-14.5 46zM473 676h197q114 0 171.5 54t57.5 136q0 85 -57.5 139t-171.5 54h-197v-383z" />
<glyph unicode="Q" horiz-adv-x="1323" d="M111 430v483q0 94 33.5 172.5t88.5 131t126.5 89.5t147 53.5t150.5 16.5t151 -16.5t148.5 -53.5t128 -89.5t89.5 -131t34 -172.5v-483q0 -155 -71 -246l77 -88q21 -19 21 -40q0 -25 -29 -54l-98 -80q-28 -28 -53 -28q-21 0 -39 18l-98 100q-105 -45 -261 -45 q-75 0 -150.5 16.5t-147 53.5t-126.5 89.5t-88.5 131t-33.5 172.5zM432 461q0 -97 62.5 -152t164.5 -55q103 0 166.5 55t63.5 152v426q0 97 -63.5 152t-166.5 55q-102 0 -164.5 -55t-62.5 -152v-426z" />
<glyph unicode="R" horiz-adv-x="1363" d="M152 59v1227q0 30 12 45t45 15h516q159 0 249 -31.5t159 -100.5q57 -55 87.5 -138.5t30.5 -182.5q0 -149 -88 -260t-196 -148l288 -419q10 -14 10 -28q1 -8 -3 -16q-8 -22 -37 -22h-242q-36 0 -57.5 13.5t-44.5 47.5l-222 330q-13 18 -17.5 39.5t-4.5 65.5v163 q0 30 13 45t46 15h41q77 0 136 48t59 118q0 78 -54 126t-135 48h-272v-1000q0 -33 -14.5 -46t-44.5 -13h-203q-29 0 -43 12.5t-14 46.5z" />
<glyph unicode="S" horiz-adv-x="1239" d="M55 403q0 35 12 46.5t48 11.5h198q38 0 54.5 -11t19.5 -47q3 -43 39 -84q56 -67 201 -67q45 0 78.5 6t62.5 20.5t44 42.5t15 70q0 33 -19 56.5t-58 38.5t-77.5 25t-99.5 24.5t-102 27.5q-73 23 -122 43t-105.5 54t-90.5 74t-56.5 101t-22.5 136q0 96 41.5 173.5 t111.5 126.5t158 76t186 31q80 0 156.5 -14t147.5 -45.5t124 -76t85 -110t32 -143.5q0 -36 -11.5 -46.5t-47.5 -10.5h-201q-7 0 -13 1.5t-10.5 3t-8.5 6t-6 6.5t-5.5 9t-4 9t-3.5 10.5t-4 9.5q-13 32 -43 62q-28 26 -76.5 40.5t-97.5 14.5q-39 0 -77.5 -9.5t-71 -38 t-32.5 -71.5q0 -35 31 -65.5t81.5 -51.5t99.5 -36t101 -29t70 -21q134 -41 192 -74q173 -98 173 -309q0 -142 -71.5 -240t-192 -144t-281.5 -46q-78 0 -155.5 17t-149 53.5t-126.5 86.5t-87.5 122t-32.5 155z" />
<glyph unicode="T" horiz-adv-x="1175" d="M53 1118v170q0 30 13.5 45t46.5 15h950q33 0 46 -15t13 -45v-170q0 -30 -13 -44.5t-46 -14.5h-313v-1000q0 -33 -15 -46t-45 -13h-203q-30 0 -44.5 13t-14.5 46v1000h-315q-34 0 -47 14.5t-13 44.5z" />
<glyph unicode="U" horiz-adv-x="1353" d="M135 412v876q0 33 15 46.5t45 13.5h202q30 0 45 -13.5t15 -46.5v-831q0 -96 58.5 -149.5t160.5 -53.5t161.5 53.5t59.5 149.5v831q0 34 14.5 47t44.5 13h203q30 0 45 -13.5t15 -46.5v-876q0 -93 -33 -169.5t-87.5 -126t-126 -84t-146 -49t-150.5 -14.5t-150 15t-145.5 49 t-125.5 83.5t-87 126t-33 169.5z" />
<glyph unicode="V" horiz-adv-x="1302" d="M20 1288q-4 11 -4 21q0 11 5 21q9 18 36 18h228q38 0 55 -14t29 -52l278 -848l277 848q13 38 29.5 52t56.5 14h217q27 0 36 -18q5 -10 5 -21q0 -10 -4 -21l-439 -1227q-18 -39 -34 -50t-50 -11h-196q-34 0 -50 11t-34 50z" />
<glyph unicode="W" horiz-adv-x="1839" d="M35 1288q-2 8 -2 16q-1 13 5 25q8 19 34 19h225q21 0 36.5 -6t24.5 -18t13 -20t8 -22l203 -696l196 696q18 66 70 66h143q50 0 68 -66l198 -696l203 696q16 66 82 66h217q25 0 33 -19q5 -10 5 -22q0 -9 -3 -19l-377 -1245q-1 -5 -4 -12t-17 -19t-34 -12h-172 q-24 0 -40.5 12t-21.5 24l-4 11l-204 653l-205 -653q-1 -5 -5 -13t-20.5 -21t-40.5 -13h-180q-20 0 -33.5 11t-17.5 21l-4 11z" />
<glyph unicode="X" horiz-adv-x="1200" d="M40 1328q8 20 34 20h241q28 0 44 -13t38 -47l205 -330l203 330q24 35 39.5 47.5t44.5 12.5h239q25 0 34 -20q4 -9 4 -17q0 -11 -7 -21l-368 -600l362 -627q13 -19 5 -41t-30 -22h-233q-36 0 -52.5 9.5t-37.5 47.5l-203 365l-205 -365q-19 -38 -36.5 -47.5t-53.5 -9.5 h-233q-22 0 -30 22t5 41l365 627l-371 600q-6 10 -6 20q-1 9 3 18z" />
<glyph unicode="Y" horiz-adv-x="1236" d="M24 1328q8 20 35 20h236q37 0 56 -11.5t40 -50.5l240 -440l231 440q19 39 38 50.5t56 11.5h222q27 0 34 -20q4 -9 4 -17q0 -11 -6 -21l-422 -784v-447q0 -33 -14.5 -46t-44.5 -13h-205q-31 0 -45 12.5t-14 46.5v447l-438 784q-6 10 -6 21q0 8 3 17z" />
<glyph unicode="Z" horiz-adv-x="1161" d="M74 59v160q0 21 6.5 40.5t13.5 28.5l6 9l553 764h-501q-34 0 -47 14.5t-13 44.5v168q0 30 13.5 45t46.5 15h823q33 0 46 -15t13 -45v-160q0 -44 -26 -79l-549 -762h569q33 0 46 -15t13 -45v-168q0 -30 -13 -44.5t-46 -14.5h-893q-39 0 -50 11t-11 48z" />
<glyph unicode="[" horiz-adv-x="847" d="M152 -260v1579q0 30 13 44.5t46 14.5h496q33 0 46 -14.5t13 -44.5v-168q0 -30 -13 -44.5t-46 -14.5h-242v-1125h242q33 0 46 -14.5t13 -44.5v-168q0 -30 -13 -44.5t-46 -14.5h-496q-33 0 -46 14.5t-13 44.5z" />
<glyph unicode="\" horiz-adv-x="821" d="M20 1362q-6 20 4 38.5t44 18.5h174q18 0 31.5 -9.5t19.5 -19.5t12 -26l492 -1307q6 -20 -3.5 -38.5t-43.5 -18.5h-177q-18 0 -31.5 9.5t-19.5 19.5t-12 26z" />
<glyph unicode="]" horiz-adv-x="847" d="M82 -92q0 30 13 44.5t46 14.5h242v1125h-242q-33 0 -46 14.5t-13 44.5v168q0 30 13 44.5t46 14.5h496q33 0 46 -14.5t13 -44.5v-1579q0 -30 -13 -44.5t-46 -14.5h-496q-33 0 -46 14.5t-13 44.5v168z" />
<glyph unicode="^" horiz-adv-x="1097" d="M117 680q0 8 6 20l291 611q17 37 47 37h176q31 0 45 -37l291 -611q6 -12 6 -22q0 -29 -37 -29h-192q-15 0 -25.5 2t-17.5 9l-9.5 9.5t-7.5 14.5t-6 14l-135 295l-135 -295q-1 -3 -4.5 -10.5t-5 -10.5t-5.5 -8.5t-8 -8t-10.5 -6t-15 -4.5t-19.5 -1h-190q-17 0 -28 8.5 t-11 22.5z" />
<glyph unicode="_" horiz-adv-x="1208" d="M0 -240q0 34 14.5 47t44.5 13h1090q30 0 44.5 -13t14.5 -47v-63q0 -33 -14.5 -46t-44.5 -13h-1090q-30 0 -44.5 13t-14.5 46v63z" />
<glyph unicode="`" horiz-adv-x="1138" d="M197.5 1313q-1.5 13 11.5 24t37 11h260q35 0 52 -10.5t40 -47.5l137 -221q12 -13 6 -35t-32 -22h-201q-15 0 -26.5 2.5t-22 9.5t-15.5 11.5t-16.5 17t-15.5 16.5l-205 221q-8 10 -9.5 23z" />
<glyph unicode="a" d="M36 19q-3 8 -4 15q0 11 7 23l455 1227q12 33 31.5 48.5t52.5 15.5h196q33 0 51.5 -15t32.5 -49l453 -1227q7 -11 7 -23q0 -8 -4 -15q-8 -19 -38 -19h-215q-34 0 -50 12.5t-28 48.5l-57 162h-502l-57 -162q-12 -36 -28 -48.5t-50 -12.5h-215q-30 0 -38 19zM522 510h307 l-153 453z" />
<glyph unicode="b" horiz-adv-x="1406" d="M152 59v1231q0 30 13 45t46 15h573q121 0 215 -30.5t150 -83t84.5 -118t28.5 -139.5q0 -58 -14.5 -107.5t-33 -78.5t-42.5 -52t-37 -30.5t-23 -12.5q10 -4 26 -12.5t46.5 -34t54.5 -57.5t42.5 -85.5t18.5 -115.5q0 -190 -133 -291.5t-354 -101.5h-602q-33 0 -46 14.5 t-13 44.5zM473 291h344q158 0 158 133q0 125 -170 125h-47q-34 0 -47 14.5t-13 44.5v156q0 30 13 44.5t47 14.5h26q170 0 170 123q0 65 -42 90t-128 25h-311v-770z" />
<glyph unicode="c" horiz-adv-x="1294" d="M109 432v483q0 93 33.5 171.5t89 131t127.5 89.5t147.5 54t150.5 17q97 0 187 -25t164.5 -71.5t123 -122.5t58.5 -170q0 -36 -13.5 -47.5t-50.5 -11.5h-196q-19 0 -30 8.5t-20 29.5t-12 25q-33 52 -81 75.5t-130 23.5q-103 0 -165 -55t-62 -150v-426q0 -97 62 -151 t165 -54q88 0 146 34.5t69 104.5q3 20 5 29.5t8 22t16.5 17.5t26.5 5h200q33 0 47.5 -16.5t14.5 -53.5q0 -77 -31 -146t-83.5 -120t-121 -88.5t-145 -56.5t-152.5 -19q-75 0 -150.5 17t-147.5 54t-127.5 89.5t-89 131t-33.5 171.5z" />
<glyph unicode="d" horiz-adv-x="1331" d="M152 59v1229q0 30 13 45t46 15h459q75 0 151 -17t148.5 -54t128 -89.5t89.5 -130.5t34 -170v-426q0 -93 -34 -171t-89.5 -130.5t-128 -89.5t-148.5 -53.5t-151 -16.5h-459q-33 0 -46 14.5t-13 44.5zM473 285h197q103 0 166 54t63 150v369q0 95 -63 150t-166 55h-197v-778 z" />
<glyph unicode="e" horiz-adv-x="1284" d="M152 59v1229q0 30 13 45t46 15h883q33 0 46 -15t13 -45v-170q0 -30 -13 -44.5t-46 -14.5h-619v-223h549q33 0 46 -15t13 -45v-160q0 -30 -13 -44.5t-46 -14.5h-549v-270h653q33 0 46.5 -15t13.5 -45v-168q0 -30 -13 -44.5t-47 -14.5h-917q-33 0 -46 14.5t-13 44.5z" />
<glyph unicode="f" horiz-adv-x="1232" d="M152 59v1229q0 30 13 45t46 15h881q33 0 46 -15t13 -45v-168q0 -30 -13 -44.5t-46 -14.5h-619v-240h533q33 0 46 -14.5t13 -44.5v-162q0 -30 -13 -44.5t-46 -14.5h-533v-480q0 -39 -11.5 -50t-47.5 -11h-203q-33 0 -46 14.5t-13 44.5z" />
<glyph unicode="g" horiz-adv-x="1323" d="M111 414v504q0 94 34 172t90 130.5t128.5 88.5t148 52.5t150.5 16.5q78 0 155.5 -17t148.5 -53t126 -85t87.5 -118.5t32.5 -148.5q0 -36 -11.5 -46.5t-47.5 -10.5h-199q-20 0 -32 7.5t-15 15.5t-6.5 24.5t-5.5 22.5q-19 53 -78 89t-155 36q-101 0 -163.5 -61.5 t-62.5 -160.5v-411q0 -97 61.5 -152t164.5 -55q106 0 166.5 53t60.5 166h-184q-34 0 -47 14.5t-13 44.5v160q0 30 13.5 45t46.5 15h448q33 0 46 -15t13 -45v-297q-5 -85 -41.5 -157t-92.5 -120.5t-127 -83t-144 -50t-145 -15.5q-76 0 -150.5 15t-147.5 49.5t-128.5 84.5 t-90 126.5t-34.5 169.5z" />
<glyph unicode="h" horiz-adv-x="1402" d="M152 59v1229q0 34 14.5 47t44.5 13h203q31 0 45 -13t14 -47v-463h457v463q0 34 14.5 47t44.5 13h203q30 0 44.5 -13t14.5 -47v-1229q0 -33 -14.5 -46t-44.5 -13h-203q-30 0 -44.5 13t-14.5 46v463h-457v-463q0 -34 -14 -46.5t-45 -12.5h-203q-30 0 -44.5 13t-14.5 46z " />
<glyph unicode="i" horiz-adv-x="909" d="M98 59v162q0 30 13.5 45t46.5 15h129v782h-125q-34 0 -47 14.5t-13 44.5v166q0 30 13.5 45t46.5 15h569q33 0 46.5 -15t13.5 -45v-166q0 -30 -13 -44.5t-47 -14.5h-123v-782h129q33 0 46.5 -15t13.5 -45v-162q0 -30 -13 -44.5t-47 -14.5h-579q-34 0 -47 14.5t-13 44.5z " />
<glyph unicode="j" horiz-adv-x="1187" d="M61 442q0 9 2 19.5t14.5 23.5t33.5 13h217q21 0 33.5 -9.5t15 -17.5t2.5 -16q4 -87 47.5 -128.5t116.5 -41.5q98 0 142 50.5t44 149.5v584h-358q-35 0 -47.5 14.5t-12.5 44.5v170q0 30 12.5 45t47.5 15h620q33 0 46.5 -15t13.5 -45v-858q0 -115 -44.5 -202.5t-119 -138 t-161.5 -75t-183 -24.5q-103 0 -190.5 29t-152.5 83.5t-102 139t-37 190.5z" />
<glyph unicode="k" horiz-adv-x="1339" d="M152 59v1229q0 34 14 47t45 13h203q28 0 42.5 -13.5t14.5 -46.5v-457l424 467q30 33 48 41.5t54 8.5h277q28 0 32 -22q1 -5 0 -9q0 -16 -12 -27l-460 -499l440 -725q14 -20 5.5 -43t-36.5 -23h-250q-35 0 -57.5 16t-44.5 50q-182 307 -293 491l-127 -133v-365 q0 -33 -14.5 -46t-42.5 -13h-203q-31 0 -45 12.5t-14 46.5z" />
<glyph unicode="l" horiz-adv-x="1191" d="M152 59v1229q0 34 14.5 47t44.5 13h203q30 0 44.5 -13t14.5 -47v-1001h590q33 0 46 -15t13 -45v-168q0 -30 -13 -44.5t-46 -14.5h-852q-33 0 -46 14.5t-13 44.5z" />
<glyph unicode="m" horiz-adv-x="1570" d="M152 59v1231q0 30 13 45t46 15h203q25 0 42.5 -8.5t24 -15.5t16.5 -25.5t11 -20.5l280 -504l283 504l8 16t11.5 20t14.5 16t24.5 14t33.5 4h197q33 0 46 -15t13 -45v-1231q0 -33 -14.5 -46t-44.5 -13h-197q-30 0 -44.5 13t-14.5 46v695l-205 -359q-27 -43 -59 -43h-103 q-30 0 -57 43l-207 359v-695q0 -33 -14.5 -46t-44.5 -13h-203q-30 0 -44.5 13t-14.5 46z" />
<glyph unicode="n" horiz-adv-x="1396" d="M152 59v1229q0 30 13 45t46 15h192q22 0 39 -9t25 -19t23 -33l6 -9l434 -700v710q0 34 14.5 47t44.5 13h197q30 0 44.5 -13t14.5 -47v-1229q0 -30 -13 -44.5t-46 -14.5h-187q-8 0 -15.5 1t-14 3.5t-11 4t-10 7.5t-8.5 8t-8.5 10t-7.5 10.5t-8.5 12.5t-8.5 13l-434 702 v-713q0 -33 -14.5 -46t-44.5 -13h-203q-30 0 -44.5 13t-14.5 46z" />
<glyph unicode="o" horiz-adv-x="1320" d="M113 432v483q0 94 33.5 172.5t88.5 131t126.5 89.5t147 53.5t150.5 16.5t151 -16.5t148.5 -53.5t128 -89.5t89.5 -131t34 -172.5v-483q0 -94 -34 -172.5t-89.5 -131t-128 -89.5t-148.5 -53.5t-151 -16.5t-150.5 16.5t-147 53.5t-126.5 89.5t-88.5 131t-33.5 172.5z M432 461q0 -97 62.5 -152t164.5 -55q103 0 166.5 55t63.5 152v426q0 97 -63.5 152t-166.5 55q-102 0 -164.5 -55t-62.5 -152v-426z" />
<glyph unicode="p" horiz-adv-x="1286" d="M152 59v1229q0 30 13 45t46 15h461q258 0 397 -129t139 -347t-140 -345.5t-398 -127.5h-197v-340q0 -33 -14.5 -46t-44.5 -13h-203q-30 0 -44.5 13t-14.5 46zM473 676h197q114 0 171.5 54t57.5 136q0 85 -57.5 139t-171.5 54h-197v-383z" />
<glyph unicode="q" horiz-adv-x="1323" d="M111 430v483q0 94 33.5 172.5t88.5 131t126.5 89.5t147 53.5t150.5 16.5t151 -16.5t148.5 -53.5t128 -89.5t89.5 -131t34 -172.5v-483q0 -155 -71 -246l77 -88q21 -19 21 -40q0 -25 -29 -54l-98 -80q-28 -28 -53 -28q-21 0 -39 18l-98 100q-105 -45 -261 -45 q-75 0 -150.5 16.5t-147 53.5t-126.5 89.5t-88.5 131t-33.5 172.5zM432 461q0 -97 62.5 -152t164.5 -55q103 0 166.5 55t63.5 152v426q0 97 -63.5 152t-166.5 55q-102 0 -164.5 -55t-62.5 -152v-426z" />
<glyph unicode="r" horiz-adv-x="1363" d="M152 59v1227q0 30 12 45t45 15h516q159 0 249 -31.5t159 -100.5q57 -55 87.5 -138.5t30.5 -182.5q0 -149 -88 -260t-196 -148l288 -419q10 -14 10 -28q1 -8 -3 -16q-8 -22 -37 -22h-242q-36 0 -57.5 13.5t-44.5 47.5l-222 330q-13 18 -17.5 39.5t-4.5 65.5v163 q0 30 13 45t46 15h41q77 0 136 48t59 118q0 78 -54 126t-135 48h-272v-1000q0 -33 -14.5 -46t-44.5 -13h-203q-29 0 -43 12.5t-14 46.5z" />
<glyph unicode="s" horiz-adv-x="1239" d="M55 403q0 35 12 46.5t48 11.5h198q38 0 54.5 -11t19.5 -47q3 -43 39 -84q56 -67 201 -67q45 0 78.5 6t62.5 20.5t44 42.5t15 70q0 33 -19 56.5t-58 38.5t-77.5 25t-99.5 24.5t-102 27.5q-73 23 -122 43t-105.5 54t-90.5 74t-56.5 101t-22.5 136q0 96 41.5 173.5 t111.5 126.5t158 76t186 31q80 0 156.5 -14t147.5 -45.5t124 -76t85 -110t32 -143.5q0 -36 -11.5 -46.5t-47.5 -10.5h-201q-7 0 -13 1.5t-10.5 3t-8.5 6t-6 6.5t-5.5 9t-4 9t-3.5 10.5t-4 9.5q-13 32 -43 62q-28 26 -76.5 40.5t-97.5 14.5q-39 0 -77.5 -9.5t-71 -38 t-32.5 -71.5q0 -35 31 -65.5t81.5 -51.5t99.5 -36t101 -29t70 -21q134 -41 192 -74q173 -98 173 -309q0 -142 -71.5 -240t-192 -144t-281.5 -46q-78 0 -155.5 17t-149 53.5t-126.5 86.5t-87.5 122t-32.5 155z" />
<glyph unicode="t" horiz-adv-x="1175" d="M53 1118v170q0 30 13.5 45t46.5 15h950q33 0 46 -15t13 -45v-170q0 -30 -13 -44.5t-46 -14.5h-313v-1000q0 -33 -15 -46t-45 -13h-203q-30 0 -44.5 13t-14.5 46v1000h-315q-34 0 -47 14.5t-13 44.5z" />
<glyph unicode="u" horiz-adv-x="1353" d="M135 412v876q0 33 15 46.5t45 13.5h202q30 0 45 -13.5t15 -46.5v-831q0 -96 58.5 -149.5t160.5 -53.5t161.5 53.5t59.5 149.5v831q0 34 14.5 47t44.5 13h203q30 0 45 -13.5t15 -46.5v-876q0 -93 -33 -169.5t-87.5 -126t-126 -84t-146 -49t-150.5 -14.5t-150 15t-145.5 49 t-125.5 83.5t-87 126t-33 169.5z" />
<glyph unicode="v" horiz-adv-x="1302" d="M20 1288q-4 11 -4 21q0 11 5 21q9 18 36 18h228q38 0 55 -14t29 -52l278 -848l277 848q13 38 29.5 52t56.5 14h217q27 0 36 -18q5 -10 5 -21q0 -10 -4 -21l-439 -1227q-18 -39 -34 -50t-50 -11h-196q-34 0 -50 11t-34 50z" />
<glyph unicode="w" horiz-adv-x="1839" d="M35 1288q-2 8 -2 16q-1 13 5 25q8 19 34 19h225q21 0 36.5 -6t24.5 -18t13 -20t8 -22l203 -696l196 696q18 66 70 66h143q50 0 68 -66l198 -696l203 696q16 66 82 66h217q25 0 33 -19q5 -10 5 -22q0 -9 -3 -19l-377 -1245q-1 -5 -4 -12t-17 -19t-34 -12h-172 q-24 0 -40.5 12t-21.5 24l-4 11l-204 653l-205 -653q-1 -5 -5 -13t-20.5 -21t-40.5 -13h-180q-20 0 -33.5 11t-17.5 21l-4 11z" />
<glyph unicode="x" horiz-adv-x="1200" d="M40 1328q8 20 34 20h241q28 0 44 -13t38 -47l205 -330l203 330q24 35 39.5 47.5t44.5 12.5h239q25 0 34 -20q4 -9 4 -17q0 -11 -7 -21l-368 -600l362 -627q13 -19 5 -41t-30 -22h-233q-36 0 -52.5 9.5t-37.5 47.5l-203 365l-205 -365q-19 -38 -36.5 -47.5t-53.5 -9.5 h-233q-22 0 -30 22t5 41l365 627l-371 600q-6 10 -6 20q-1 9 3 18z" />
<glyph unicode="y" horiz-adv-x="1236" d="M24 1328q8 20 35 20h236q37 0 56 -11.5t40 -50.5l240 -440l231 440q19 39 38 50.5t56 11.5h222q27 0 34 -20q4 -9 4 -17q0 -11 -6 -21l-422 -784v-447q0 -33 -14.5 -46t-44.5 -13h-205q-31 0 -45 12.5t-14 46.5v447l-438 784q-6 10 -6 21q0 8 3 17z" />
<glyph unicode="z" horiz-adv-x="1161" d="M74 59v160q0 21 6.5 40.5t13.5 28.5l6 9l553 764h-501q-34 0 -47 14.5t-13 44.5v168q0 30 13.5 45t46.5 15h823q33 0 46 -15t13 -45v-160q0 -44 -26 -79l-549 -762h569q33 0 46 -15t13 -45v-168q0 -30 -13 -44.5t-46 -14.5h-893q-39 0 -50 11t-11 48z" />
<glyph unicode="{" horiz-adv-x="1021" d="M90 -92q0 30 13 44.5t47 14.5h96q68 3 94 29q33 30 33 129v207q0 38 7.5 68.5t21 50t27 33.5t32.5 22.5t29.5 12t25.5 7.5l12 4l-14 2q-18 5 -30.5 9t-35.5 18.5t-37.5 33.5t-26 54t-11.5 80v207q0 96 -33 129q-26 26 -94 29h-96q-34 0 -47 14.5t-13 44.5v168 q0 30 13 44.5t47 14.5h196q149 0 234 -82q94 -94 94 -229v-236q0 -86 33 -122q40 -37 114 -37h51q33 0 46.5 -15t13.5 -45v-168q0 -30 -13 -44.5t-47 -14.5h-65q-65 -3 -100 -35q-33 -36 -33 -123v-235q0 -136 -94 -230q-84 -81 -234 -81h-196q-34 0 -47 14.5t-13 44.5v168z " />
<glyph unicode="|" horiz-adv-x="690" d="M205 -281v1844q0 33 14.5 46t44.5 13h162q30 0 44.5 -13t14.5 -46v-1844q0 -33 -14.5 -46t-44.5 -13h-162q-30 0 -44.5 13t-14.5 46z" />
<glyph unicode="}" horiz-adv-x="1021" d="M90 444v168q0 30 13.5 45t46.5 15h51q74 0 114 37q33 36 33 122v236q0 135 94 229q85 82 234 82h196q34 0 47 -14.5t13 -44.5v-168q0 -30 -13 -44.5t-47 -14.5h-96q-68 -3 -94 -29q-33 -33 -33 -129v-207q0 -45 -11.5 -80t-26 -54t-37.5 -33.5t-35.5 -18.5t-30.5 -9 l-14 -2l12 -4q15 -4 25.5 -7.5t29.5 -12t32.5 -22.5t27 -33.5t21 -50t7.5 -68.5v-207q0 -99 33 -129q26 -26 94 -29h96q34 0 47 -14.5t13 -44.5v-168q0 -30 -13 -44.5t-47 -14.5h-196q-150 0 -234 81q-94 94 -94 230v235q0 87 -33 123q-35 32 -100 35h-65q-34 0 -47 14.5 t-13 44.5z" />
<glyph unicode="~" horiz-adv-x="1705" d="M340.5 643.5q0.5 23.5 19.5 44.5q150 135 293 135q114 0 213 -55q51 -28 87 -39.5t79 -11.5q52 0 121 43q20 12 45.5 9.5t40.5 -19.5l104 -107q35 -35 -6 -80q-153 -137 -293 -137q-114 0 -213 55q-87 51 -165 51q-52 0 -121 -43q-20 -12 -45.5 -8t-38.5 21l-105 104 q-16 14 -15.5 37.5z" />
<glyph unicode="&#xa1;" horiz-adv-x="647" d="M127 -276q0 2 4 37q28 247 86 784q5 40 13.5 49.5t43.5 9.5h101q36 0 45 -10t14 -49q58 -543 84 -786q4 -33 4 -35q0 -25 -13.5 -34t-45.5 -9h-275q-34 0 -47.5 8.5t-13.5 34.5zM152 741v228q0 33 14.5 46t44.5 13h227q30 0 45 -13t15 -46v-228q0 -33 -15 -46t-45 -13 h-227q-30 0 -44.5 13t-14.5 46z" />
<glyph unicode="&#xa3;" horiz-adv-x="1333" d="M72 59v168q0 30 12.5 45t46.5 15q26 0 45 5.5t40 22.5t34 56t16 98h-135q-33 0 -46 14.5t-13 44.5v160q0 30 13 45t46 15h135v221q0 127 66 221.5t171.5 141t233.5 46.5q94 0 179 -27t156 -80.5t113 -143.5t42 -205q0 -31 -7 -38t-32 -7h-203q-30 0 -43.5 14t-13.5 31 q0 98 -43.5 134t-136.5 36q-80 0 -119 -58t-39 -147v-139h266q33 0 46 -15t13 -45v-160q0 -30 -13 -44.5t-46 -14.5h-266q0 -126 -68 -182h670q33 0 46 -15t13 -45v-168q0 -29 -13 -44t-46 -15h-1063q-32 1 -44.5 16t-12.5 43z" />
<glyph unicode="&#xa4;" horiz-adv-x="1380" d="M202.5 129.5q-1.5 18.5 22.5 44.5l82 82q-74 120 -73.5 261t75.5 259l-82 84q-24 26 -22.5 44.5t22.5 39.5l66 66q21 21 39.5 22.5t44.5 -22.5l84 -82q118 75 259 75.5t261 -73.5l82 82q26 24 44.5 22.5t39.5 -22.5l67 -68q21 -21 22.5 -39.5t-22.5 -44.5l-81 -84 q75 -119 73.5 -259t-76.5 -261l84 -84q24 -26 22.5 -44.5t-22.5 -39.5l-65 -65q-21 -21 -39.5 -22.5t-44.5 22.5l-84 83q-120 -75 -260 -75.5t-260 73.5l-84 -81q-26 -24 -44.5 -22.5t-39.5 22.5l-68 67q-21 21 -22.5 39.5zM496.5 517q0.5 -93 66.5 -159q65 -66 158 -66 t158 66q66 64 66 158t-66 158q-66 66 -159 66.5t-159 -64.5q-65 -66 -64.5 -159z" />
<glyph unicode="&#xa5;" horiz-adv-x="1216" d="M8 1327.5q8 20.5 35 20.5h238q37 0 55 -11t39 -51l237 -436h4l230 436q21 40 39 51t55 11h221q27 0 35.5 -20.5t-2.5 -37.5l-236 -440h84q30 0 45 -13t15 -46v-109q0 -33 -15 -46t-45 -13h-206l-64 -117v-4h270q30 0 45 -13.5t15 -46.5v-108q0 -33 -15 -46.5t-45 -13.5 h-270v-215q0 -33 -14.5 -46t-44.5 -13h-205q-30 0 -44.5 13t-14.5 46v215h-285q-30 0 -45 13.5t-15 46.5v108q0 33 15 46.5t45 13.5h285v4l-66 117h-219q-30 0 -45 13t-15 46v109q0 33 15 46t45 13h92l-246 440q-10 17 -2 37.5z" />
<glyph unicode="&#xa6;" horiz-adv-x="690" d="M205 -172v430q0 33 14.5 46t44.5 13h162q30 0 44.5 -13t14.5 -46v-430q0 -33 -14.5 -46t-44.5 -13h-162q-30 0 -44.5 13t-14.5 46zM205 764v430q0 33 14.5 46t44.5 13h162q30 0 44.5 -13t14.5 -46v-430q0 -33 -14.5 -46t-44.5 -13h-162q-30 0 -44.5 13t-14.5 46z" />
<glyph unicode="&#xa7;" horiz-adv-x="1107" d="M92 604q0 98 43 171t123 110q-84 75 -84 176q0 99 60 173t148.5 109t188.5 35q102 0 180.5 -31t118 -71.5t64 -87.5t30 -72t5.5 -33q0 -18 -1 -27.5t-6.5 -21t-18.5 -16t-34 -4.5h-153q-21 0 -35.5 9t-20.5 18.5t-14 27.5q-11 26 -24 39q-32 29 -87 29q-39 0 -68.5 -21 t-29.5 -61q0 -15 8 -29.5t16 -23.5t28 -21.5t27.5 -16.5t31.5 -16l12 -4q1 -1 211 -100q99 -44 152 -121t53 -176q0 -87 -35 -153t-98 -97q41 -40 65.5 -95.5t24.5 -109.5q0 -69 -23 -126t-62.5 -96.5t-92.5 -67t-111.5 -40t-120.5 -12.5q-112 0 -196.5 26.5t-132 72 t-70.5 98.5t-23 112q0 45 13 58.5t47 13.5h155q27 0 43.5 -10.5t19.5 -21.5l3 -11q8 -38 37 -63q38 -33 98 -33q51 0 82 27t31 71q0 20 -12.5 39.5t-29 33.5t-49.5 31.5t-57 28t-69 29.5q-36 15 -55 23.5t-54.5 25.5t-55.5 28.5t-50.5 31.5t-48 37t-38.5 41t-32.5 48 t-19 54.5t-7.5 62.5zM377 645q-3 -29 13 -46t54 -40l191 -96q16 -8 39 -8q32 0 55 20t23 49q0 54 -74 90l-182 88q-29 11 -47 11q-29 0 -50 -19.5t-22 -48.5z" />
<glyph unicode="&#xa8;" horiz-adv-x="1138" d="M143 1155v133q0 34 14.5 47t45.5 13h225q59 0 59 -60v-133q0 -33 -15 -46t-44 -13h-225q-31 0 -45.5 12.5t-14.5 46.5zM649 1155v133q0 33 15 46.5t45 13.5h225q30 0 44.5 -13t14.5 -47v-133q0 -33 -14.5 -46t-44.5 -13h-225q-30 0 -45 13t-15 46z" />
<glyph unicode="&#xab;" horiz-adv-x="968" d="M61 532v160q0 34 25 56l281 245q15 16 34 8t19 -32v-181q0 -37 -43 -71l-127 -105l127 -104q43 -34 43 -70v-182q0 -23 -19 -30.5t-34 7.5l-281 244q-25 22 -25 55zM487 532v160q0 34 25 56l281 245q15 16 34 8t19 -32v-181q0 -37 -43 -71l-127 -105l127 -104 q43 -34 43 -70v-182q0 -23 -19 -30.5t-34 7.5l-281 244q-25 22 -25 55z" />
<glyph unicode="&#xad;" horiz-adv-x="888" d="M106 467v160q0 33 15 46t45 13h557q30 0 44.5 -13t14.5 -46v-160q0 -33 -14.5 -46t-44.5 -13h-557q-30 0 -45 13t-15 46z" />
<glyph unicode="&#xb0;" horiz-adv-x="802" d="M96 1075q0 132 86.5 218.5t218.5 86.5t219 -86.5t87 -218.5t-87 -218.5t-219 -86.5t-218.5 86.5t-86.5 218.5zM256 1075q0 -62 42 -103.5t103 -41.5t103.5 41.5t42.5 103.5t-42.5 104t-103.5 42t-103 -42t-42 -104z" />
<glyph unicode="&#xb1;" horiz-adv-x="1148" d="M100 59v142q0 33 15 46t45 13h284v205h-284q-30 0 -45 13t-15 46v142q0 33 15 46t45 13h284v182q0 30 13.5 45t46.5 15h141q33 0 46.5 -15t13.5 -45v-182h284q30 0 45 -13t15 -46v-142q0 -33 -15 -46t-45 -13h-284v-205h284q30 0 45 -13t15 -46v-142q0 -33 -15 -46 t-45 -13h-829q-30 0 -45 13t-15 46z" />
<glyph unicode="&#xb4;" horiz-adv-x="1138" d="M418 1034q-6 22 6 35l137 221q23 37 40 47.5t52 10.5h260q24 0 37 -11t11.5 -24t-9.5 -23l-204 -221q-4 -4 -13.5 -14t-13.5 -14t-13 -11t-16 -10t-18 -5.5t-23 -2.5h-200q-27 0 -33 22z" />
<glyph unicode="&#xb6;" horiz-adv-x="1705" d="M268 858v221q0 107 85 188t182 81h667q44 0 62 -13t18 -47v-1229q0 -33 -14.5 -46t-44.5 -13h-142q-30 0 -44.5 13t-14.5 46v1049h-160v-1049q0 -33 -14.5 -46t-44.5 -13h-141q-30 0 -45 13t-15 46v531h-65q-110 0 -189.5 79t-79.5 189z" />
<glyph unicode="&#xb7;" horiz-adv-x="602" d="M117 485q0 85 58.5 144t143.5 59t144 -59t59 -144t-59 -143.5t-144 -58.5t-143.5 58.5t-58.5 143.5z" />
<glyph unicode="&#xb8;" horiz-adv-x="1024" d="M210 -458q-6 26 2 48.5t25.5 40.5t40 26t49 2.5t48.5 -26.5q30 -26 63 -26h129q26 0 43.5 16t22 38.5t1 45.5t-21.5 39.5t-45 17.5h-147q-52 0 -29 58q19 38 39.5 79.5t32 66t24.5 50t21 39t17.5 25t17.5 16t18 4.5h113q24 0 29 -19.5t-5 -31.5l-61 -141q89 -9 144.5 -63 t61 -125t-18 -140t-92 -116.5t-161.5 -47.5h-137q-123 0 -196 76q-22 22 -28 48z" />
<glyph unicode="&#xbb;" horiz-adv-x="968" d="M123 256v182q0 36 43 70l127 104l-127 105q-43 34 -43 71v181q0 24 19 32t34 -8l281 -245q24 -21 24 -56v-160q0 -34 -24 -55l-281 -244q-15 -15 -34 -7.5t-19 30.5zM549 256v182q0 36 43 70l127 104l-127 105q-43 34 -43 71v181q0 24 19 32t34 -8l281 -245 q24 -21 24 -56v-160q0 -34 -24 -55l-281 -244q-15 -15 -34 -7.5t-19 30.5z" />
<glyph unicode="&#xbf;" horiz-adv-x="1101" d="M70 18q0 -93 39.5 -166.5t106.5 -118t150.5 -67t176.5 -22.5q101 0 182.5 27t132.5 68t87 96.5t52 107t21 104.5q0 37 -6 50.5t-29 13.5h-205q-23 0 -37 -10t-18 -21.5t-8 -32.5q-13 -49 -58 -89t-116 -40q-58 0 -100 32t-42 81q0 32 22 59t50 43t66.5 40.5t60.5 47.5 q57 59 83 127t26 174q0 33 -14 49.5t-52 16.5h-170q-39 0 -52 -14t-13 -52q0 -42 -13 -76.5t-40.5 -63t-47.5 -44.5t-57 -41q-36 -26 -62 -48t-55.5 -57t-45 -79t-15.5 -95zM389 733v228q0 33 15 46t45 13h227q30 0 44.5 -13t14.5 -46v-228q0 -33 -14.5 -46t-44.5 -13h-227 q-30 0 -45 13t-15 46z" />
<glyph unicode="&#xc0;" d="M35.5 19q-7.5 19 3.5 38l455 1227q12 33 31.5 48.5t52.5 15.5h196q33 0 51.5 -15t32.5 -49l453 -1227q11 -19 3.5 -38t-38.5 -19h-215q-34 0 -50 12.5t-28 48.5l-57 162h-502l-57 -162q-12 -36 -28 -48.5t-50 -12.5h-215q-31 0 -38.5 19zM252.5 1767.5 q-1.5 12.5 11.5 23.5t37 11h260q35 0 52.5 -10t39.5 -47l138 -221q12 -14 5.5 -36t-32.5 -22h-201q-18 0 -34 6.5t-21 10t-22.5 22t-18.5 19.5l-205 221q-8 10 -9.5 22.5zM522 510h307l-153 453z" />
<glyph unicode="&#xc1;" d="M35.5 19q-7.5 19 3.5 38l455 1227q12 33 31.5 48.5t52.5 15.5h196q33 0 51.5 -15t32.5 -49l453 -1227q11 -19 3.5 -38t-38.5 -19h-215q-34 0 -50 12.5t-28 48.5l-57 162h-502l-57 -162q-12 -36 -28 -48.5t-50 -12.5h-215q-31 0 -38.5 19zM522 510h307l-153 453z M549.5 1488q-6.5 22 5.5 36l137 221q22 37 39.5 47t52.5 10h260q24 0 37 -11t11.5 -23.5t-9.5 -22.5l-204 -221q-4 -4 -15.5 -16.5t-17 -17t-16 -12t-22 -10t-26.5 -2.5h-200q-26 0 -32.5 22z" />
<glyph unicode="&#xc2;" d="M35.5 19q-7.5 19 3.5 38l455 1227q12 33 31.5 48.5t52.5 15.5h196q33 0 51.5 -15t32.5 -49l453 -1227q11 -19 3.5 -38t-38.5 -19h-215q-34 0 -50 12.5t-28 48.5l-57 162h-502l-57 -162q-12 -36 -28 -48.5t-50 -12.5h-215q-31 0 -38.5 19zM289.5 1485.5 q-8.5 19.5 7.5 34.5l246 280q22 25 55 25h160q33 0 55 -25l244 -280q15 -15 7.5 -34.5t-30.5 -19.5h-182q-36 0 -70 43l-104 127l-105 -127q-34 -43 -71 -43h-180q-24 0 -32.5 19.5zM522 510h307l-153 453z" />
<glyph unicode="&#xc3;" d="M35.5 19q-7.5 19 3.5 38l455 1227q12 33 31.5 48.5t52.5 15.5h196q33 0 51.5 -15t32.5 -49l453 -1227q11 -19 3.5 -38t-38.5 -19h-215q-34 0 -50 12.5t-28 48.5l-57 162h-502l-57 -162q-12 -36 -28 -48.5t-50 -12.5h-215q-31 0 -38.5 19zM299 1507v2q0 93 62 159.5 t159 66.5q62 0 166 -37q120 -43 145 -47q23 -3 43.5 8t28.5 39q4 12 8 19t15 12.5t28 5.5h95q24 0 24 -41v-2q0 -93 -62 -159.5t-159 -66.5q-62 0 -166 37q-120 43 -145 47q-23 3 -43.5 -8t-28.5 -39q-4 -12 -8 -19t-15 -12.5t-28 -5.5h-94q-25 0 -25 41zM522 510h307 l-153 453z" />
<glyph unicode="&#xc4;" d="M35.5 19q-7.5 19 3.5 38l455 1227q12 33 31.5 48.5t52.5 15.5h196q33 0 51.5 -15t32.5 -49l453 -1227q11 -19 3.5 -38t-38.5 -19h-215q-34 0 -50 12.5t-28 48.5l-57 162h-502l-57 -162q-12 -36 -28 -48.5t-50 -12.5h-215q-31 0 -38.5 19zM244 1526v133q0 34 14 46.5 t45 12.5h225q60 0 60 -59v-133q0 -60 -60 -60h-225q-31 0 -45 13t-14 47zM522 510h307l-153 453zM750 1526v133q0 33 14.5 46t44.5 13h225q30 0 45 -13t15 -46v-133q0 -33 -15 -46.5t-45 -13.5h-225q-30 0 -44.5 13t-14.5 47z" />
<glyph unicode="&#xc5;" d="M35.5 19q-7.5 19 3.5 38l455 1227q10 26 20 39q-74 67 -74 170q0 95 69 162t163 67t161.5 -67.5t67.5 -161.5q0 -99 -70 -166q14 -14 27 -43l453 -1227q11 -19 3.5 -38t-38.5 -19h-215q-34 0 -50 12.5t-28 48.5l-57 162h-502l-57 -162q-12 -36 -28 -48.5t-50 -12.5h-215 q-31 0 -38.5 19zM522 510h307l-153 453zM563 1493q0 -43 33 -76t76 -33q42 0 74 33.5t32 75.5q0 41 -32.5 73.5t-73.5 32.5q-42 0 -75.5 -32t-33.5 -74z" />
<glyph unicode="&#xc6;" horiz-adv-x="1986" d="M32 17.5q-8 17.5 1 39.5l581 1211q21 41 45.5 61.5t63.5 20.5h1075q33 0 46.5 -15t13.5 -45v-168q0 -30 -13 -44.5t-47 -14.5h-586v-227h517q33 0 46 -15t13 -45v-160q0 -30 -13 -44.5t-46 -14.5h-517v-270h621q33 0 46 -15t13 -45v-168q0 -30 -13 -44.5t-46 -14.5h-868 q-28 0 -44 10t-16 39v174h-434l-78 -162q-18 -33 -38 -47t-54 -14h-240q-21 0 -29 17.5zM590 512h315v553h-65z" />
<glyph unicode="&#xc7;" horiz-adv-x="1294" d="M109 432v483q0 93 33.5 171.5t89 131t127.5 89.5t147.5 54t150.5 17q97 0 187 -25t164.5 -71.5t123 -122.5t58.5 -170q0 -36 -13.5 -47.5t-50.5 -11.5h-196q-19 0 -30 8.5t-20 29.5t-12 25q-33 52 -81 75.5t-130 23.5q-103 0 -165 -55t-62 -150v-426q0 -97 62 -151 t165 -54q88 0 146 34.5t69 104.5q3 20 5 29.5t8 22t16.5 17.5t26.5 5h200q33 0 47.5 -16.5t14.5 -53.5q0 -104 -56 -192t-143 -142.5t-194 -78.5l-35 -80q89 -9 144.5 -63t61 -125t-18 -140t-92 -116.5t-161.5 -47.5h-137q-124 0 -197 76q-22 22 -28 48t2 48.5t26 40.5 t40.5 26t49 2.5t48.5 -26.5q30 -26 63 -26h129q26 0 43.5 16t22 38.5t1 45.5t-21.5 39.5t-45 17.5h-147q-52 0 -29 58q6 11 76 155q-71 7 -138.5 28t-130.5 59.5t-110 89.5t-75.5 124t-28.5 158z" />
<glyph unicode="&#xc8;" horiz-adv-x="1284" d="M152 59v1229q0 30 13 45t46 15h883q33 0 46 -15t13 -45v-170q0 -30 -13 -44.5t-46 -14.5h-619v-223h549q33 0 46 -15t13 -45v-160q0 -30 -13 -44.5t-46 -14.5h-549v-270h653q33 0 46.5 -15t13.5 -45v-168q0 -30 -13 -44.5t-47 -14.5h-917q-33 0 -46 14.5t-13 44.5z M291.5 1767.5q-1.5 12.5 11.5 23.5t37 11h260q35 0 52.5 -10t39.5 -47l137 -221q12 -14 6 -36t-32 -22h-201q-18 0 -34 6.5t-21 10t-22.5 22t-18.5 19.5l-205 221q-8 10 -9.5 22.5z" />
<glyph unicode="&#xc9;" horiz-adv-x="1284" d="M152 59v1229q0 30 13 45t46 15h883q33 0 46 -15t13 -45v-170q0 -30 -13 -44.5t-46 -14.5h-619v-223h549q33 0 46 -15t13 -45v-160q0 -30 -13 -44.5t-46 -14.5h-549v-270h653q33 0 46.5 -15t13.5 -45v-168q0 -30 -13 -44.5t-47 -14.5h-917q-33 0 -46 14.5t-13 44.5z M488 1488q-6 22 6 36l137 221q22 37 39.5 47t52.5 10h260q24 0 37 -11t11.5 -23.5t-9.5 -22.5l-205 -221q-5 -5 -16 -17t-16.5 -16.5t-15.5 -12t-21.5 -10t-26.5 -2.5h-201q-26 0 -32 22z" />
<glyph unicode="&#xca;" horiz-adv-x="1284" d="M152 59v1229q0 30 13 45t46 15h883q33 0 46 -15t13 -45v-170q0 -30 -13 -44.5t-46 -14.5h-619v-223h549q33 0 46 -15t13 -45v-160q0 -30 -13 -44.5t-46 -14.5h-549v-270h653q33 0 46.5 -15t13.5 -45v-168q0 -30 -13 -44.5t-47 -14.5h-917q-33 0 -46 14.5t-13 44.5z M281 1485.5q-8 19.5 8 34.5l246 280q22 25 55 25h160q33 0 55 -25l244 -280q15 -15 7.5 -34.5t-30.5 -19.5h-182q-36 0 -70 43l-104 127l-105 -127q-34 -43 -71 -43h-181q-24 0 -32 19.5z" />
<glyph unicode="&#xcb;" horiz-adv-x="1284" d="M152 59v1229q0 30 13 45t46 15h883q33 0 46 -15t13 -45v-170q0 -30 -13 -44.5t-46 -14.5h-619v-223h549q33 0 46 -15t13 -45v-160q0 -30 -13 -44.5t-46 -14.5h-549v-270h653q33 0 46.5 -15t13.5 -45v-168q0 -30 -13 -44.5t-47 -14.5h-917q-33 0 -46 14.5t-13 44.5z M231 1526v133q0 34 14.5 46.5t45.5 12.5h225q29 0 44 -13t15 -46v-133q0 -60 -59 -60h-225q-31 0 -45.5 13t-14.5 47zM737 1526v133q0 33 15 46t45 13h225q30 0 44.5 -13t14.5 -46v-133q0 -34 -14.5 -47t-44.5 -13h-225q-30 0 -45 13.5t-15 46.5z" />
<glyph unicode="&#xcc;" horiz-adv-x="999" d="M115.5 1767.5q-1.5 12.5 11.5 23.5t37 11h260q35 0 52.5 -10t39.5 -47l137 -221q12 -14 6 -36t-32 -22h-201q-18 0 -34 6.5t-21 10t-22.5 22t-18.5 19.5l-205 221q-8 10 -9.5 22.5zM129 59v168q0 30 13 45t46 15h158v774h-125q-33 0 -46 14.5t-13 44.5v168q0 30 13 45 t46 15h570q33 0 46 -15t13 -45v-168q0 -30 -13 -44.5t-46 -14.5h-123v-774h157q33 0 46.5 -15t13.5 -45v-168q0 -30 -13 -44.5t-47 -14.5h-637q-33 0 -46 14.5t-13 44.5z" />
<glyph unicode="&#xcd;" horiz-adv-x="991" d="M115 59v168q0 30 13 45t46 15h158v774h-125q-34 0 -47 14.5t-13 44.5v168q0 30 13.5 45t46.5 15h569q33 0 46.5 -15t13.5 -45v-168q0 -30 -13 -44.5t-47 -14.5h-123v-774h158q33 0 46 -15t13 -45v-168q0 -30 -13 -44.5t-46 -14.5h-637q-33 0 -46 14.5t-13 44.5z M332.5 1488q-6.5 22 5.5 36l137 221q22 37 39.5 47t52.5 10h260q24 0 37 -11t11.5 -23.5t-9.5 -22.5l-204 -221q-4 -4 -15.5 -16.5t-17 -17t-16 -12t-22 -10t-26.5 -2.5h-200q-26 0 -32.5 22z" />
<glyph unicode="&#xce;" horiz-adv-x="1011" d="M115 59v168q0 30 13 45t46 15h158v774h-125q-34 0 -47 14.5t-13 44.5v168q0 30 13.5 45t46.5 15h569q33 0 46.5 -15t13.5 -45v-168q0 -30 -13 -44.5t-47 -14.5h-123v-774h158q33 0 46 -15t13 -45v-168q0 -30 -13 -44.5t-46 -14.5h-637q-33 0 -46 14.5t-13 44.5z M119.5 1485.5q-8.5 19.5 7.5 34.5l246 280q22 25 55 25h160q33 0 55 -25l244 -280q15 -15 7.5 -34.5t-30.5 -19.5h-182q-36 0 -70 43l-104 127l-105 -127q-34 -43 -71 -43h-180q-24 0 -32.5 19.5z" />
<glyph unicode="&#xcf;" horiz-adv-x="1079" d="M115 1526v133q0 34 14 46.5t45 12.5h225q60 0 60 -59v-133q0 -60 -60 -60h-225q-31 0 -45 13t-14 47zM162 59v168q0 30 13 45t46 15h158v774h-125q-33 0 -46 14.5t-13 44.5v168q0 30 13 45t46 15h569q33 0 46.5 -15t13.5 -45v-168q0 -30 -13 -44.5t-47 -14.5h-123v-774 h158q33 0 46.5 -15t13.5 -45v-168q0 -30 -13 -44.5t-47 -14.5h-637q-33 0 -46 14.5t-13 44.5zM621 1526v133q0 33 14.5 46t44.5 13h225q30 0 45 -13t15 -46v-133q0 -33 -15 -46.5t-45 -13.5h-225q-30 0 -44.5 13t-14.5 47z" />
<glyph unicode="&#xd0;" horiz-adv-x="1331" d="M8 582v151q0 33 15 46.5t45 13.5h84v495q0 30 13 45t46 15h459q75 0 151 -17t148.5 -54t128 -89.5t89.5 -130.5t34 -170v-426q0 -93 -34 -171t-89.5 -130.5t-128 -89.5t-148.5 -53.5t-151 -16.5h-459q-33 0 -46 14.5t-13 44.5v463h-84q-30 0 -45 13.5t-15 46.5zM473 285 h197q103 0 166 54t63 150v369q0 95 -63 150t-166 55h-197v-270h117q30 0 44.5 -13t14.5 -47v-151q0 -34 -14.5 -47t-44.5 -13h-117v-237z" />
<glyph unicode="&#xd1;" horiz-adv-x="1396" d="M152 59v1229q0 30 13 45t46 15h192q22 0 39 -9t25 -19t23 -33l6 -9l434 -700v710q0 34 14.5 47t44.5 13h197q30 0 44.5 -13t14.5 -47v-1229q0 -30 -13 -44.5t-46 -14.5h-187q-8 0 -15.5 1t-14 3.5t-11 4t-10 7.5t-8.5 8t-8.5 10t-7.5 10.5t-8.5 12.5t-8.5 13l-434 702 v-713q0 -33 -14.5 -46t-44.5 -13h-203q-30 0 -44.5 13t-14.5 46zM338 1507v2q0 93 62 159.5t159 66.5q62 0 166 -37q120 -43 145 -47q23 -3 43.5 8t28.5 39q4 12 8 19t15 12.5t28 5.5h94q25 0 25 -41v-2q0 -93 -62 -159.5t-159 -66.5q-62 0 -166 37q-120 43 -145 47 q-23 3 -43.5 -8t-28.5 -39q-4 -12 -8 -19t-15 -12.5t-28 -5.5h-95q-24 0 -24 41z" />
<glyph unicode="&#xd2;" horiz-adv-x="1320" d="M113 432v483q0 94 33.5 172.5t88.5 131t126.5 89.5t147 53.5t150.5 16.5t151 -16.5t148.5 -53.5t128 -89.5t89.5 -131t34 -172.5v-483q0 -94 -34 -172.5t-89.5 -131t-128 -89.5t-148.5 -53.5t-151 -16.5t-150.5 16.5t-147 53.5t-126.5 89.5t-88.5 131t-33.5 172.5z M340.5 1767.5q-1.5 12.5 11.5 23.5t37 11h260q35 0 52.5 -10t39.5 -47l138 -221q12 -14 5.5 -36t-32.5 -22h-201q-18 0 -34 6.5t-21 10t-22.5 22t-18.5 19.5l-205 221q-8 10 -9.5 22.5zM432 461q0 -97 62.5 -152t164.5 -55q103 0 166.5 55t63.5 152v426q0 97 -63.5 152 t-166.5 55q-102 0 -164.5 -55t-62.5 -152v-426z" />
<glyph unicode="&#xd3;" horiz-adv-x="1320" d="M113 432v483q0 94 33.5 172.5t88.5 131t126.5 89.5t147 53.5t150.5 16.5t151 -16.5t148.5 -53.5t128 -89.5t89.5 -131t34 -172.5v-483q0 -94 -34 -172.5t-89.5 -131t-128 -89.5t-148.5 -53.5t-151 -16.5t-150.5 16.5t-147 53.5t-126.5 89.5t-88.5 131t-33.5 172.5z M432 461q0 -97 62.5 -152t164.5 -55q103 0 166.5 55t63.5 152v426q0 97 -63.5 152t-166.5 55q-102 0 -164.5 -55t-62.5 -152v-426zM434.5 1488q-6.5 22 5.5 36l138 221q22 37 39.5 47t52.5 10h260q24 0 37 -11t11.5 -23.5t-9.5 -22.5l-205 -221q-5 -5 -16 -17t-16.5 -16.5 t-15.5 -12t-21.5 -10t-26.5 -2.5h-201q-26 0 -32.5 22z" />
<glyph unicode="&#xd4;" horiz-adv-x="1320" d="M113 432q0 -94 33.5 -172.5t88.5 -131t126.5 -89.5t147 -53.5t150.5 -16.5t151 16.5t148.5 53.5t128 89.5t89.5 131t34 172.5v483q0 94 -34 172.5t-89.5 131t-128 89.5t-148.5 53.5t-151 16.5t-150.5 -16.5t-147 -53.5t-126.5 -89.5t-88.5 -131t-33.5 -172.5v-483z M273 1485.5q-8 19.5 8 34.5l245 280q22 25 56 25h159q34 0 56 -25l243 -280q15 -15 8 -34.5t-30 -19.5h-182q-36 0 -70 43l-104 127l-105 -127q-34 -43 -72 -43h-180q-24 0 -32 19.5zM432 461v426q0 97 62.5 152t164.5 55q103 0 166.5 -55t63.5 -152v-426q0 -97 -63.5 -152 t-166.5 -55q-102 0 -164.5 55t-62.5 152z" />
<glyph unicode="&#xd5;" horiz-adv-x="1320" d="M113 432q0 -94 33.5 -172.5t88.5 -131t126.5 -89.5t147 -53.5t150.5 -16.5t151 16.5t148.5 53.5t128 89.5t89.5 131t34 172.5v483q0 94 -34 172.5t-89.5 131t-128 89.5t-148.5 53.5t-151 16.5t-150.5 -16.5t-147 -53.5t-126.5 -89.5t-88.5 -131t-33.5 -172.5v-483z M272 1507v2q0 93 62.5 159.5t159.5 66.5q61 0 165 -37q121 -43 146 -47q23 -3 43.5 8t28.5 39q4 12 8 19t15 12.5t28 5.5h94q25 0 25 -41v-2q0 -93 -62.5 -159.5t-159.5 -66.5q-62 0 -166 37q-120 43 -145 47q-23 3 -43.5 -8t-28.5 -39q-4 -12 -8 -19t-15 -12.5t-28 -5.5 h-94q-25 0 -25 41zM432 461v426q0 97 62.5 152t164.5 55q103 0 166.5 -55t63.5 -152v-426q0 -97 -63.5 -152t-166.5 -55q-102 0 -164.5 55t-62.5 152z" />
<glyph unicode="&#xd6;" horiz-adv-x="1320" d="M113 432q0 -94 33.5 -172.5t88.5 -131t126.5 -89.5t147 -53.5t150.5 -16.5t151 16.5t148.5 53.5t128 89.5t89.5 131t34 172.5v483q0 94 -34 172.5t-89.5 131t-128 89.5t-148.5 53.5t-151 16.5t-150.5 -16.5t-147 -53.5t-126.5 -89.5t-88.5 -131t-33.5 -172.5v-483z M233 1526v133q0 34 14.5 46.5t45.5 12.5h225q60 0 60 -59v-133q0 -60 -60 -60h-225q-31 0 -45.5 13t-14.5 47zM432 461v426q0 97 62.5 152t164.5 55q103 0 166.5 -55t63.5 -152v-426q0 -97 -63.5 -152t-166.5 -55q-102 0 -164.5 55t-62.5 152zM739 1526v133q0 33 15 46 t45 13h225q30 0 44.5 -13t14.5 -46v-133q0 -34 -14.5 -47t-44.5 -13h-225q-30 0 -45 13.5t-15 46.5z" />
<glyph unicode="&#xd7;" horiz-adv-x="1101" d="M87.5 361.5q1.5 17.5 21.5 39.5l245 244l-245 244q-20 22 -21.5 39.5t21.5 44.5l112 114q43 41 84 0l246 -245l244 245q22 20 39.5 21.5t44.5 -21.5l112 -114q25 -26 23.5 -44t-23.5 -40l-243 -244l243 -244q22 -22 23.5 -40t-23.5 -44l-112 -114q-27 -23 -44.5 -21.5 t-39.5 21.5l-244 246l-246 -246q-41 -41 -84 0l-112 114q-23 27 -21.5 44.5z" />
<glyph unicode="&#xd8;" horiz-adv-x="1320" d="M113 432v483q0 94 33.5 172.5t88.5 131t126.5 89.5t147 53.5t150.5 16.5q68 0 146 -16l49 125q22 55 64 55h126q34 0 44 -18.5t4 -38.5l-82 -207q200 -132 200 -363v-483q0 -94 -34 -172.5t-89.5 -131t-128 -89.5t-148.5 -53.5t-151 -16.5q-71 0 -155 19l-41 -109 q-22 -55 -64 -55h-129q-34 0 -43.5 18.5t-3.5 38.5l76 195q-186 130 -186 356zM432 461q0 -29 2 -41l264 672q-6 0 -19.5 1t-19.5 1q-102 0 -164.5 -55t-62.5 -152v-426zM610 256q14 -2 49 -2q103 0 166.5 55t63.5 152v426q0 37 -8 61z" />
<glyph unicode="&#xd9;" horiz-adv-x="1353" d="M135 412v876q0 33 15 46.5t45 13.5h202q30 0 45 -13.5t15 -46.5v-831q0 -96 58.5 -149.5t160.5 -53.5t161.5 53.5t59.5 149.5v831q0 34 14.5 47t44.5 13h203q30 0 45 -13.5t15 -46.5v-876q0 -93 -33 -169.5t-87.5 -126t-126 -84t-146 -49t-150.5 -14.5t-150 15t-145.5 49 t-125.5 83.5t-87 126t-33 169.5zM340.5 1767.5q-1.5 12.5 11.5 23.5t37 11h260q35 0 52.5 -10t39.5 -47l138 -221q12 -14 5.5 -36t-32.5 -22h-201q-18 0 -34 6.5t-21 10t-22.5 22t-18.5 19.5l-205 221q-8 10 -9.5 22.5z" />
<glyph unicode="&#xda;" horiz-adv-x="1353" d="M135 412v876q0 33 15 46.5t45 13.5h202q30 0 45 -13.5t15 -46.5v-831q0 -96 58.5 -149.5t160.5 -53.5t161.5 53.5t59.5 149.5v831q0 34 14.5 47t44.5 13h203q30 0 45 -13.5t15 -46.5v-876q0 -93 -33 -169.5t-87.5 -126t-126 -84t-146 -49t-150.5 -14.5t-150 15t-145.5 49 t-125.5 83.5t-87 126t-33 169.5zM459.5 1488q-6.5 22 5.5 36l137 221q22 37 39.5 47t52.5 10h260q24 0 37 -11t11.5 -23.5t-9.5 -22.5l-205 -221q-5 -5 -16 -17t-16.5 -16.5t-15.5 -12t-21.5 -10t-26.5 -2.5h-200q-26 0 -32.5 22z" />
<glyph unicode="&#xdb;" horiz-adv-x="1353" d="M135 412v876q0 33 15 46.5t45 13.5h202q30 0 45 -13.5t15 -46.5v-831q0 -96 58.5 -149.5t160.5 -53.5t161.5 53.5t59.5 149.5v831q0 34 14.5 47t44.5 13h203q30 0 45 -13.5t15 -46.5v-876q0 -93 -33 -169.5t-87.5 -126t-126 -84t-146 -49t-150.5 -14.5t-150 15t-145.5 49 t-125.5 83.5t-87 126t-33 169.5zM287 1485.5q-8 19.5 8 34.5l246 280q22 25 55 25h160q33 0 55 -25l244 -280q15 -15 7.5 -34.5t-30.5 -19.5h-182q-36 0 -70 43l-104 127l-105 -127q-34 -43 -71 -43h-181q-24 0 -32 19.5z" />
<glyph unicode="&#xdc;" horiz-adv-x="1353" d="M135 412v876q0 33 15 46.5t45 13.5h202q30 0 45 -13.5t15 -46.5v-831q0 -96 58.5 -149.5t160.5 -53.5t161.5 53.5t59.5 149.5v831q0 34 14.5 47t44.5 13h203q30 0 45 -13.5t15 -46.5v-876q0 -93 -33 -169.5t-87.5 -126t-126 -84t-146 -49t-150.5 -14.5t-150 15t-145.5 49 t-125.5 83.5t-87 126t-33 169.5zM252 1526v133q0 34 14 46.5t45 12.5h226q29 0 44 -13t15 -46v-133q0 -60 -59 -60h-226q-31 0 -45 13t-14 47zM758 1526v133q0 33 14.5 46t44.5 13h225q30 0 45 -13t15 -46v-133q0 -33 -15 -46.5t-45 -13.5h-225q-30 0 -44.5 13t-14.5 47z " />
<glyph unicode="&#xdd;" horiz-adv-x="1236" d="M24.5 1327.5q7.5 20.5 34.5 20.5h236q37 0 56 -11.5t40 -50.5l240 -440l231 440q19 39 38 50.5t56 11.5h222q27 0 34.5 -20.5t-2.5 -37.5l-422 -784v-447q0 -33 -14.5 -46t-44.5 -13h-205q-31 0 -45 12.5t-14 46.5v447l-438 784q-10 17 -2.5 37.5zM465.5 1488 q-6.5 22 5.5 36l137 221q22 37 39.5 47t52.5 10h261q24 0 36 -10.5t11.5 -24t-9.5 -22.5l-204 -221q-4 -4 -15.5 -16.5t-17 -17t-16 -12t-22 -10t-26.5 -2.5h-200q-26 0 -32.5 22z" />
<glyph unicode="&#xde;" horiz-adv-x="1286" d="M152 59v1233q0 34 14.5 47t44.5 13h203q30 0 44.5 -13t14.5 -47v-139h199q258 0 397 -128.5t139 -346.5t-140 -345.5t-398 -127.5h-197v-146q0 -33 -14.5 -46t-44.5 -13h-203q-30 0 -44.5 13t-14.5 46zM473 481h197q114 0 171.5 54t57.5 137q0 85 -57.5 138.5 t-171.5 53.5h-197v-383z" />
<glyph unicode="&#xdf;" horiz-adv-x="1347" d="M152 -176v1057q3 151 81 263.5t205.5 169t286.5 56.5q121 0 215 -31t150.5 -84.5t85 -119t28.5 -140.5q0 -58 -14 -108t-32.5 -79.5t-42 -52.5t-37 -31.5t-23.5 -12.5q9 -3 26 -13t46 -35.5t53.5 -58.5t42.5 -87t18 -116q0 -190 -133.5 -293.5t-353.5 -103.5h-52h-63 q-33 0 -46 14.5t-13 44.5v173q0 30 13 44.5t46 14.5h125q77 0 119.5 34.5t42.5 102.5q0 65 -47 97t-119 32h-55q-33 0 -46.5 15t-13.5 45v155q0 30 13.5 45t46.5 15h30q170 0 170 127q0 59 -44.5 88.5t-125.5 29.5q-135 0 -199.5 -62.5t-64.5 -201.5v-993q0 -34 -14.5 -47 t-44.5 -13h-201q-30 0 -44.5 13t-14.5 47z" />
<glyph unicode="&#xe0;" d="M35.5 19q-7.5 19 3.5 38l455 1227q12 33 31.5 48.5t52.5 15.5h196q33 0 51.5 -15t32.5 -49l453 -1227q11 -19 3.5 -38t-38.5 -19h-215q-34 0 -50 12.5t-28 48.5l-57 162h-502l-57 -162q-12 -36 -28 -48.5t-50 -12.5h-215q-31 0 -38.5 19zM281.5 1825q-1.5 13 11.5 24 t37 11h260q35 0 52 -10.5t40 -47.5l137 -221q12 -13 6 -35t-32 -22h-201q-15 0 -26.5 2.5t-22 9.5t-15.5 11.5t-16.5 17t-15.5 16.5l-205 221q-8 10 -9.5 23zM522 510h307l-153 453z" />
<glyph unicode="&#xe1;" d="M35.5 19q-7.5 19 3.5 38l455 1227q12 33 31.5 48.5t52.5 15.5h196q33 0 51.5 -15t32.5 -49l453 -1227q11 -19 3.5 -38t-38.5 -19h-215q-34 0 -50 12.5t-28 48.5l-57 162h-502l-57 -162q-12 -36 -28 -48.5t-50 -12.5h-215q-31 0 -38.5 19zM516 1538q-6 22 6 35l137 221 q22 37 40 47t53 10h260q24 0 37 -11t11.5 -23.5t-9.5 -22.5l-205 -221q-4 -4 -15.5 -16.5t-16.5 -17t-15.5 -11.5t-22 -9.5t-26.5 -2.5h-201q-27 0 -33 22zM522 510h307l-153 453z" />
<glyph unicode="&#xe2;" d="M35.5 19q-7.5 19 3.5 38l455 1227q12 33 31.5 48.5t52.5 15.5h196q33 0 51.5 -15t32.5 -49l453 -1227q11 -19 3.5 -38t-38.5 -19h-215q-34 0 -50 12.5t-28 48.5l-57 162h-502l-57 -162q-12 -36 -28 -48.5t-50 -12.5h-215q-31 0 -38.5 19zM295.5 1528.5 q-8.5 19.5 7.5 34.5l246 280q22 25 55 25h160q33 0 55 -25l244 -280q15 -15 7.5 -34.5t-30.5 -19.5h-182q-36 0 -70 43l-104 127l-104 -127q-34 -43 -72 -43h-180q-24 0 -32.5 19.5zM522 510h307l-153 453z" />
<glyph unicode="&#xe3;" d="M35.5 19q-7.5 19 3.5 38l455 1227q12 33 31.5 48.5t52.5 15.5h196q33 0 51.5 -15t32.5 -49l453 -1227q11 -19 3.5 -38t-38.5 -19h-215q-34 0 -50 12.5t-28 48.5l-57 162h-502l-57 -162q-12 -36 -28 -48.5t-50 -12.5h-215q-31 0 -38.5 19zM279 1542v2q0 93 62 159t159 66 q65 0 166 -36q120 -43 145 -47q23 -3 43.5 8t28.5 39q5 18 15.5 27t35.5 9h94q25 0 25 -40v-3q0 -93 -62.5 -159t-159.5 -66q-61 0 -165 37q-121 43 -146 47q-55 8 -71 -47q-5 -18 -16 -27.5t-36 -9.5h-94q-24 0 -24 41zM522 510h307l-153 453z" />
<glyph unicode="&#xe4;" d="M35.5 19q-7.5 19 3.5 38l455 1227q12 33 31.5 48.5t52.5 15.5h196q33 0 51.5 -15t32.5 -49l453 -1227q11 -19 3.5 -38t-38.5 -19h-215q-34 0 -50 12.5t-28 48.5l-57 162h-502l-57 -162q-12 -36 -28 -48.5t-50 -12.5h-215q-31 0 -38.5 19zM254 1581v133q0 34 14 47t45 13 h226q59 0 59 -60v-133q0 -33 -15 -46t-44 -13h-226q-31 0 -45 12.5t-14 46.5zM522 510h307l-153 453zM760 1581v133q0 34 14.5 47t44.5 13h225q30 0 45 -13.5t15 -46.5v-133q0 -33 -15 -46t-45 -13h-225q-30 0 -44.5 13t-14.5 46z" />
<glyph unicode="&#xe5;" d="M35.5 19q-7.5 19 3.5 38l455 1227q15 41 43 55q-43 31 -68 80t-25 105q0 95 69 162t163 67t161.5 -67.5t67.5 -161.5q0 -54 -25 -103t-67 -82q26 -13 45 -55l453 -1227q11 -19 3.5 -38t-38.5 -19h-215q-34 0 -50 12.5t-28 48.5l-57 162h-502l-57 -162q-12 -36 -28 -48.5 t-50 -12.5h-215q-31 0 -38.5 19zM522 510h307l-153 453zM567 1524q0 -43 33 -76t76 -33q42 0 74 33.5t32 75.5q0 41 -32.5 73.5t-73.5 32.5q-42 0 -75.5 -32t-33.5 -74z" />
<glyph unicode="&#xe6;" horiz-adv-x="1986" d="M32 17.5q-8 17.5 1 39.5l581 1211q21 41 45.5 61.5t63.5 20.5h1075q33 0 46.5 -15t13.5 -45v-168q0 -30 -13 -44.5t-47 -14.5h-586v-227h517q33 0 46 -15t13 -45v-160q0 -30 -13 -44.5t-46 -14.5h-517v-270h621q33 0 46 -15t13 -45v-168q0 -30 -13 -44.5t-46 -14.5h-868 q-28 0 -44 10t-16 39v174h-434l-78 -162q-18 -33 -38 -47t-54 -14h-240q-21 0 -29 17.5zM590 512h315v553h-65z" />
<glyph unicode="&#xe7;" horiz-adv-x="1294" d="M109 432v483q0 93 33.5 171.5t89 131t127.5 89.5t147.5 54t150.5 17q97 0 187 -25t164.5 -71.5t123 -122.5t58.5 -170q0 -36 -13.5 -47.5t-50.5 -11.5h-196q-19 0 -30 8.5t-20 29.5t-12 25q-33 52 -81 75.5t-130 23.5q-103 0 -165 -55t-62 -150v-426q0 -97 62 -151 t165 -54q88 0 146 34.5t69 104.5q3 20 5 29.5t8 22t16.5 17.5t26.5 5h200q33 0 47.5 -16.5t14.5 -53.5q0 -80 -33.5 -151t-90.5 -123t-129 -88t-153 -53l-30 -74q89 -9 144.5 -63t61 -125t-18 -140t-92 -116.5t-161.5 -47.5h-137q-124 0 -197 76q-22 22 -28 48t2 48.5 t26 40.5t40.5 26t49 2.5t48.5 -26.5q30 -26 63 -26h129q26 0 43.5 16t22 38.5t1 45.5t-21.5 39.5t-45 17.5h-147q-52 0 -29 58l74 151q-89 11 -170.5 43t-150.5 86.5t-110.5 139.5t-41.5 190z" />
<glyph unicode="&#xe8;" horiz-adv-x="1284" d="M152 59v1229q0 30 13 45t46 15h883q33 0 46 -15t13 -45v-170q0 -30 -13 -44.5t-46 -14.5h-619v-223h549q33 0 46 -15t13 -45v-160q0 -30 -13 -44.5t-46 -14.5h-549v-270h653q33 0 46.5 -15t13.5 -45v-168q0 -30 -13 -44.5t-47 -14.5h-917q-33 0 -46 14.5t-13 44.5z M324.5 1796.5q-1.5 12.5 11.5 23.5t37 11h260q35 0 52.5 -10t39.5 -47l137 -222q12 -14 6 -35.5t-32 -21.5h-201q-15 0 -26.5 2.5t-22 9.5t-15.5 11.5t-16.5 17t-15.5 16.5l-205 222q-8 10 -9.5 22.5z" />
<glyph unicode="&#xe9;" horiz-adv-x="1284" d="M152 59v1229q0 30 13 45t46 15h883q33 0 46 -15t13 -45v-170q0 -30 -13 -44.5t-46 -14.5h-619v-223h549q33 0 46 -15t13 -45v-160q0 -30 -13 -44.5t-46 -14.5h-549v-270h653q33 0 46.5 -15t13.5 -45v-168q0 -30 -13 -44.5t-47 -14.5h-917q-33 0 -46 14.5t-13 44.5z M492 1527.5q-6 22.5 6 35.5l137 221q22 37 39.5 47t52.5 10h260q24 0 37 -11t11.5 -23.5t-9.5 -22.5l-205 -221q-5 -5 -16 -17t-16.5 -16.5t-15.5 -12t-21.5 -10t-26.5 -2.5h-201q-26 0 -32 22.5z" />
<glyph unicode="&#xea;" horiz-adv-x="1284" d="M152 59v1229q0 30 13 45t46 15h883q33 0 46 -15t13 -45v-170q0 -30 -13 -44.5t-46 -14.5h-619v-223h549q33 0 46 -15t13 -45v-160q0 -30 -13 -44.5t-46 -14.5h-549v-270h653q33 0 46.5 -15t13.5 -45v-168q0 -30 -13 -44.5t-47 -14.5h-917q-33 0 -46 14.5t-13 44.5z M266.5 1526.5q-8.5 19.5 7.5 34.5l246 280q22 25 55 25h160q34 0 56 -25l243 -280q15 -15 8 -34.5t-30 -19.5h-183q-35 0 -69 43l-105 127l-104 -127q-34 -43 -72 -43h-180q-24 0 -32.5 19.5z" />
<glyph unicode="&#xeb;" horiz-adv-x="1284" d="M152 59v1229q0 30 13 45t46 15h883q33 0 46 -15t13 -45v-170q0 -30 -13 -44.5t-46 -14.5h-619v-223h549q33 0 46 -15t13 -45v-160q0 -30 -13 -44.5t-46 -14.5h-549v-270h653q33 0 46.5 -15t13.5 -45v-168q0 -30 -13 -44.5t-47 -14.5h-917q-33 0 -46 14.5t-13 44.5z M242 1563v133q0 34 14 46.5t45 12.5h225q60 0 60 -59v-133q0 -60 -60 -60h-225q-31 0 -45 13t-14 47zM748 1563v133q0 33 14.5 46t44.5 13h225q30 0 45 -13t15 -46v-133q0 -33 -15 -46.5t-45 -13.5h-225q-30 0 -44.5 13t-14.5 47z" />
<glyph unicode="&#xec;" horiz-adv-x="985" d="M125.5 1802.5q-1.5 12.5 11.5 23.5t37 11h260q35 0 52.5 -10t39.5 -47l138 -221q12 -13 5.5 -35.5t-32.5 -22.5h-201q-18 0 -34 6.5t-21 10t-22.5 22t-18.5 19.5l-205 221q-8 10 -9.5 22.5zM143 59v162q0 30 13.5 45t46.5 15h129v782h-125q-34 0 -47 14.5t-13 44.5v166 q0 30 13.5 45t46.5 15h569q33 0 46.5 -15t13.5 -45v-166q0 -30 -13 -44.5t-47 -14.5h-123v-782h129q33 0 46.5 -15t13.5 -45v-162q0 -30 -13 -44.5t-47 -14.5h-579q-34 0 -47 14.5t-13 44.5z" />
<glyph unicode="&#xed;" horiz-adv-x="985" d="M143 59v162q0 30 13.5 45t46.5 15h129v782h-125q-34 0 -47 14.5t-13 44.5v166q0 30 13.5 45t46.5 15h569q33 0 46.5 -15t13.5 -45v-166q0 -30 -13 -44.5t-47 -14.5h-123v-782h129q33 0 46.5 -15t13.5 -45v-162q0 -30 -13 -44.5t-47 -14.5h-579q-34 0 -47 14.5t-13 44.5z M316 1510.5q-6 21.5 6 35.5l137 221q23 37 40 47.5t52 10.5h260q24 0 37 -11t11.5 -24t-9.5 -23l-205 -221q-4 -4 -15.5 -16.5t-16.5 -17t-15.5 -11.5t-22 -9.5t-26.5 -2.5h-201q-26 0 -32 21.5z" />
<glyph unicode="&#xee;" horiz-adv-x="985" d="M105 1524.5q-8 19.5 8 34.5l245 280q22 25 56 25h159q34 0 56 -25l243 -280q15 -15 8 -34.5t-30 -19.5h-182q-36 0 -70 43l-104 127l-105 -127q-34 -43 -72 -43h-180q-24 0 -32 19.5zM143 59v162q0 30 13.5 45t46.5 15h129v782h-125q-34 0 -47 14.5t-13 44.5v166 q0 30 13.5 45t46.5 15h569q33 0 46.5 -15t13.5 -45v-166q0 -30 -13 -44.5t-47 -14.5h-123v-782h129q33 0 46.5 -15t13.5 -45v-162q0 -30 -13 -44.5t-47 -14.5h-579q-34 0 -47 14.5t-13 44.5z" />
<glyph unicode="&#xef;" horiz-adv-x="985" d="M82 1559v135q0 35 13.5 48t43.5 13h221q29 0 44.5 -13.5t15.5 -47.5v-135q0 -60 -60 -60h-221q-29 0 -43 13t-14 47zM143 59v162q0 30 13.5 45t46.5 15h129v782h-125q-34 0 -47 14.5t-13 44.5v166q0 30 13.5 45t46.5 15h569q33 0 46.5 -15t13.5 -45v-166q0 -30 -13 -44.5 t-47 -14.5h-123v-782h129q33 0 46.5 -15t13.5 -45v-162q0 -30 -13 -44.5t-47 -14.5h-579q-34 0 -47 14.5t-13 44.5zM580 1559v135q0 35 13.5 48t43.5 13h221q30 0 45 -13t15 -48v-135q0 -33 -15 -46.5t-45 -13.5h-221q-29 0 -43 13t-14 47z" />
<glyph unicode="&#xf0;" horiz-adv-x="1331" d="M8 582v151q0 33 15 46.5t45 13.5h84v495q0 30 13 45t46 15h459q75 0 151 -17t148.5 -54t128 -89.5t89.5 -130.5t34 -170v-426q0 -93 -34 -171t-89.5 -130.5t-128 -89.5t-148.5 -53.5t-151 -16.5h-459q-33 0 -46 14.5t-13 44.5v463h-84q-30 0 -45 13.5t-15 46.5zM473 285 h197q103 0 166 54t63 150v369q0 95 -63 150t-166 55h-197v-270h117q30 0 44.5 -13t14.5 -47v-151q0 -34 -14.5 -47t-44.5 -13h-117v-237z" />
<glyph unicode="&#xf1;" horiz-adv-x="1396" d="M152 59v1229q0 30 13 45t46 15h192q22 0 39 -9t25 -19t23 -33l6 -9l434 -700v710q0 34 14.5 47t44.5 13h197q30 0 44.5 -13t14.5 -47v-1229q0 -30 -13 -44.5t-46 -14.5h-187q-8 0 -15.5 1t-14 3.5t-11 4t-10 7.5t-8.5 8t-8.5 10t-7.5 10.5t-8.5 12.5t-8.5 13l-434 702 v-713q0 -33 -14.5 -46t-44.5 -13h-203q-30 0 -44.5 13t-14.5 46zM303 1536v2q0 93 62 159t159 66q62 0 166 -37q121 -43 146 -47q55 -8 71 47q4 12 8 19t15 12.5t28 5.5h95q24 0 24 -41v-2q0 -93 -62 -159t-159 -66q-62 0 -166 37q-120 43 -145 47q-23 3 -43.5 -8t-28.5 -39 q-4 -12 -8 -19t-15 -12.5t-28 -5.5h-94q-25 0 -25 41z" />
<glyph unicode="&#xf2;" horiz-adv-x="1320" d="M113 432v483q0 94 33.5 172.5t88.5 131t126.5 89.5t147 53.5t150.5 16.5t151 -16.5t148.5 -53.5t128 -89.5t89.5 -131t34 -172.5v-483q0 -94 -34 -172.5t-89.5 -131t-128 -89.5t-148.5 -53.5t-151 -16.5t-150.5 16.5t-147 53.5t-126.5 89.5t-88.5 131t-33.5 172.5z M291.5 1804.5q-1.5 12.5 11.5 23.5t37 11h260q35 0 52.5 -10t39.5 -47l137 -221q12 -13 6 -35.5t-32 -22.5h-201q-18 0 -34 6.5t-21 10t-22.5 22t-18.5 19.5l-205 221q-8 10 -9.5 22.5zM432 461q0 -97 62.5 -152t164.5 -55q103 0 166.5 55t63.5 152v426q0 97 -63.5 152 t-166.5 55q-102 0 -164.5 -55t-62.5 -152v-426z" />
<glyph unicode="&#xf3;" horiz-adv-x="1320" d="M113 432v483q0 94 33.5 172.5t88.5 131t126.5 89.5t147 53.5t150.5 16.5t151 -16.5t148.5 -53.5t128 -89.5t89.5 -131t34 -172.5v-483q0 -94 -34 -172.5t-89.5 -131t-128 -89.5t-148.5 -53.5t-151 -16.5t-150.5 16.5t-147 53.5t-126.5 89.5t-88.5 131t-33.5 172.5z M432 461q0 -97 62.5 -152t164.5 -55q103 0 166.5 55t63.5 152v426q0 97 -63.5 152t-166.5 55q-102 0 -164.5 -55t-62.5 -152v-426zM483.5 1533.5q-6.5 22.5 5.5 35.5l138 221q22 37 39.5 47t52.5 10h260q24 0 37 -11t11.5 -23.5t-9.5 -22.5l-205 -221q-5 -5 -16 -17 t-16.5 -16.5t-15.5 -12t-21.5 -10t-26.5 -2.5h-201q-26 0 -32.5 22.5z" />
<glyph unicode="&#xf4;" horiz-adv-x="1320" d="M113 432v483q0 94 33.5 172.5t88.5 131t126.5 89.5t147 53.5t150.5 16.5t151 -16.5t148.5 -53.5t128 -89.5t89.5 -131t34 -172.5v-483q0 -94 -34 -172.5t-89.5 -131t-128 -89.5t-148.5 -53.5t-151 -16.5t-150.5 16.5t-147 53.5t-126.5 89.5t-88.5 131t-33.5 172.5z M273 1522q-8 19 8 34l245 281q22 25 56 25h159q34 0 56 -25l243 -281q15 -15 8 -34t-30 -19h-182q-36 0 -70 43l-104 127l-105 -127q-34 -43 -72 -43h-180q-24 0 -32 19zM432 461q0 -97 62.5 -152t164.5 -55q103 0 166.5 55t63.5 152v426q0 97 -63.5 152t-166.5 55 q-102 0 -164.5 -55t-62.5 -152v-426z" />
<glyph unicode="&#xf5;" horiz-adv-x="1320" d="M113 432v483q0 94 33.5 172.5t88.5 131t126.5 89.5t147 53.5t150.5 16.5t151 -16.5t148.5 -53.5t128 -89.5t89.5 -131t34 -172.5v-483q0 -94 -34 -172.5t-89.5 -131t-128 -89.5t-148.5 -53.5t-151 -16.5t-150.5 16.5t-147 53.5t-126.5 89.5t-88.5 131t-33.5 172.5z M276 1544v2q0 93 62.5 159.5t159.5 66.5q62 0 166 -37q120 -43 145 -47q23 -3 43.5 8t28.5 39q4 12 8 19t15 12.5t28 5.5h94q25 0 25 -41v-2q0 -93 -62.5 -159.5t-159.5 -66.5q-61 0 -165 37q-121 43 -146 47q-23 3 -43.5 -8t-28.5 -39q-4 -12 -8 -19t-15 -12.5t-28 -5.5 h-94q-25 0 -25 41zM432 461q0 -97 62.5 -152t164.5 -55q103 0 166.5 55t63.5 152v426q0 97 -63.5 152t-166.5 55q-102 0 -164.5 -55t-62.5 -152v-426z" />
<glyph unicode="&#xf6;" horiz-adv-x="1320" d="M113 432v483q0 94 33.5 172.5t88.5 131t126.5 89.5t147 53.5t150.5 16.5t151 -16.5t148.5 -53.5t128 -89.5t89.5 -131t34 -172.5v-483q0 -94 -34 -172.5t-89.5 -131t-128 -89.5t-148.5 -53.5t-151 -16.5t-150.5 16.5t-147 53.5t-126.5 89.5t-88.5 131t-33.5 172.5z M236 1569v133q0 34 14 46.5t45 12.5h225q60 0 60 -59v-133q0 -60 -60 -60h-225q-31 0 -45 13t-14 47zM432 461q0 -97 62.5 -152t164.5 -55q103 0 166.5 55t63.5 152v426q0 97 -63.5 152t-166.5 55q-102 0 -164.5 -55t-62.5 -152v-426zM741 1569v133q0 33 15 46t45 13h225 q30 0 44.5 -13t14.5 -46v-133q0 -34 -14.5 -47t-44.5 -13h-225q-30 0 -45 13.5t-15 46.5z" />
<glyph unicode="&#xf7;" horiz-adv-x="1138" d="M88 487v160q0 34 14.5 47t44.5 13h830q30 0 44.5 -13t14.5 -47v-160q0 -33 -14.5 -46t-44.5 -13h-830q-30 0 -44.5 13t-14.5 46zM377 156q0 76 54.5 130t131.5 54t131 -54t54 -130q0 -77 -54.5 -132t-130.5 -55t-131 55t-55 132zM377 977q0 76 54.5 130t131.5 54t131 -54 t54 -130t-54 -130t-131 -54t-131.5 54t-54.5 130z" />
<glyph unicode="&#xf8;" horiz-adv-x="1320" d="M113 432v483q0 94 33.5 172.5t88.5 131t126.5 89.5t147 53.5t150.5 16.5q68 0 146 -16l49 125q22 55 64 55h126q34 0 44 -18.5t4 -38.5l-82 -207q200 -132 200 -363v-483q0 -94 -34 -172.5t-89.5 -131t-128 -89.5t-148.5 -53.5t-151 -16.5q-71 0 -155 19l-41 -109 q-22 -55 -64 -55h-129q-34 0 -43.5 18.5t-3.5 38.5l76 195q-186 130 -186 356zM432 461q0 -29 2 -41l264 672q-6 0 -19.5 1t-19.5 1q-102 0 -164.5 -55t-62.5 -152v-426zM610 256q14 -2 49 -2q103 0 166.5 55t63.5 152v426q0 37 -8 61z" />
<glyph unicode="&#xf9;" horiz-adv-x="1353" d="M135 412v876q0 33 15 46.5t45 13.5h202q30 0 45 -13.5t15 -46.5v-831q0 -96 58.5 -149.5t160.5 -53.5t161.5 53.5t59.5 149.5v831q0 34 14.5 47t44.5 13h203q30 0 45 -13.5t15 -46.5v-876q0 -93 -33 -169.5t-87.5 -126t-126 -84t-146 -49t-150.5 -14.5t-150 15t-145.5 49 t-125.5 83.5t-87 126t-33 169.5zM314.5 1804.5q-0.5 13.5 11.5 24t36 10.5h261q35 0 52.5 -10t39.5 -47l137 -221q12 -13 5.5 -35.5t-32.5 -22.5h-200q-15 0 -26.5 2.5t-22 10t-16 12t-17 17t-15.5 16.5l-204 221q-9 9 -9.5 22.5z" />
<glyph unicode="&#xfa;" horiz-adv-x="1353" d="M135 412v876q0 33 15 46.5t45 13.5h202q30 0 45 -13.5t15 -46.5v-831q0 -96 58.5 -149.5t160.5 -53.5t161.5 53.5t59.5 149.5v831q0 34 14.5 47t44.5 13h203q30 0 45 -13.5t15 -46.5v-876q0 -93 -33 -169.5t-87.5 -126t-126 -84t-146 -49t-150.5 -14.5t-150 15t-145.5 49 t-125.5 83.5t-87 126t-33 169.5zM504 1512.5q-6 21.5 6 35.5l137 221q23 37 40 47.5t52 10.5h260q24 0 37 -11t11.5 -24t-9.5 -23l-204 -221q-4 -4 -13.5 -14t-13.5 -14t-13 -11t-16 -10t-18 -5.5t-23 -2.5h-200q-27 0 -33 21.5z" />
<glyph unicode="&#xfb;" horiz-adv-x="1353" d="M135 412v876q0 33 15 46.5t45 13.5h202q30 0 45 -13.5t15 -46.5v-831q0 -96 58.5 -149.5t160.5 -53.5t161.5 53.5t59.5 149.5v831q0 34 14.5 47t44.5 13h203q30 0 45 -13.5t15 -46.5v-876q0 -93 -33 -169.5t-87.5 -126t-126 -84t-146 -49t-150.5 -14.5t-150 15t-145.5 49 t-125.5 83.5t-87 126t-33 169.5zM301.5 1528.5q-8.5 19.5 7.5 34.5l246 280q22 25 55 25h160q33 0 55 -25l244 -280q15 -15 8 -34.5t-30 -19.5h-183q-35 0 -69 43l-105 127l-104 -127q-34 -43 -72 -43h-180q-24 0 -32.5 19.5z" />
<glyph unicode="&#xfc;" horiz-adv-x="1353" d="M135 412v876q0 33 15 46.5t45 13.5h202q30 0 45 -13.5t15 -46.5v-831q0 -96 58.5 -149.5t160.5 -53.5t161.5 53.5t59.5 149.5v831q0 34 14.5 47t44.5 13h203q30 0 45 -13.5t15 -46.5v-876q0 -93 -33 -169.5t-87.5 -126t-126 -84t-146 -49t-150.5 -14.5t-150 15t-145.5 49 t-125.5 83.5t-87 126t-33 169.5zM248 1583v133q0 34 14 47t45 13h225q60 0 60 -60v-133q0 -59 -60 -59h-225q-31 0 -45 12.5t-14 46.5zM754 1583v133q0 34 14.5 47t44.5 13h225q30 0 45 -13.5t15 -46.5v-133q0 -33 -15 -46t-45 -13h-225q-30 0 -44.5 13t-14.5 46z" />
<glyph unicode="&#xfd;" horiz-adv-x="1236" d="M24.5 1327.5q7.5 20.5 34.5 20.5h236q37 0 56 -11.5t40 -50.5l240 -440l231 440q19 39 38 50.5t56 11.5h222q27 0 34.5 -20.5t-2.5 -37.5l-422 -784v-447q0 -33 -14.5 -46t-44.5 -13h-205q-31 0 -45 12.5t-14 46.5v447l-438 784q-10 17 -2.5 37.5zM457 1518.5 q-6 21.5 6 35.5l137 222q22 37 39.5 47t52.5 10h260q24 0 37 -11t11.5 -23.5t-9.5 -22.5l-205 -222q-4 -4 -15.5 -16.5t-16.5 -17t-15.5 -11.5t-22 -9.5t-26.5 -2.5h-201q-26 0 -32 21.5z" />
<glyph unicode="&#xfe;" horiz-adv-x="1286" d="M152 59v1233q0 34 14.5 47t44.5 13h203q30 0 44.5 -13t14.5 -47v-139h199q258 0 397 -128.5t139 -346.5t-140 -345.5t-398 -127.5h-197v-146q0 -33 -14.5 -46t-44.5 -13h-203q-30 0 -44.5 13t-14.5 46zM473 481h197q114 0 171.5 54t57.5 137q0 85 -57.5 138.5 t-171.5 53.5h-197v-383z" />
<glyph unicode="&#xff;" horiz-adv-x="1705" />
<glyph unicode="&#x152;" horiz-adv-x="1890" d="M98 465v418q0 92 33 170.5t87.5 131.5t125.5 90.5t146 55t149 17.5h1065q32 0 44.5 -15t12.5 -45v-168q0 -30 -12.5 -44.5t-44.5 -14.5h-522v-227h450q33 0 46.5 -15t13.5 -45v-160q0 -30 -13 -44.5t-47 -14.5h-450v-268h555q33 0 46 -15t13 -45v-168q0 -30 -13 -44.5 t-46 -14.5h-1098q-75 1 -149.5 18.5t-145.5 55t-125.5 90.5t-87.5 131t-33 170zM422 510q0 -100 63.5 -167t163.5 -67h230v797h-230q-100 0 -163.5 -67.5t-63.5 -167.5v-328z" />
<glyph unicode="&#x153;" horiz-adv-x="1890" d="M98 465v418q0 92 33 170.5t87.5 131.5t125.5 90.5t146 55t149 17.5h1065q32 0 44.5 -15t12.5 -45v-168q0 -30 -12.5 -44.5t-44.5 -14.5h-522v-227h450q33 0 46.5 -15t13.5 -45v-160q0 -30 -13 -44.5t-47 -14.5h-450v-268h555q33 0 46 -15t13 -45v-168q0 -30 -13 -44.5 t-46 -14.5h-1098q-75 1 -149.5 18.5t-145.5 55t-125.5 90.5t-87.5 131t-33 170zM422 510q0 -100 63.5 -167t163.5 -67h230v797h-230q-100 0 -163.5 -67.5t-63.5 -167.5v-328z" />
<glyph unicode="&#x178;" horiz-adv-x="1255" d="M26.5 1327.5q7.5 20.5 34.5 20.5h236q37 0 56 -11.5t40 -50.5l240 -440l231 440q21 40 39 51t55 11h222q27 0 35 -20.5t-3 -37.5l-421 -784v-447q0 -33 -15 -46t-45 -13h-205q-30 0 -44.5 13t-14.5 46v447l-438 784q-10 17 -2.5 37.5zM195 1565v133q0 33 14.5 46t44.5 13 h225q30 0 45 -13t15 -46v-133q0 -33 -15 -46.5t-45 -13.5h-225q-30 0 -44.5 13t-14.5 47zM702 1565v133q0 33 15 46t45 13h225q30 0 45 -13t15 -46v-133q0 -33 -15 -46.5t-45 -13.5h-225q-30 0 -45 13.5t-15 46.5z" />
<glyph unicode="&#x2c6;" horiz-adv-x="1024" d="M119.5 1008q-8.5 19 7.5 34l246 281q22 25 55 25h160q33 0 55 -25l244 -281q15 -15 7.5 -34t-30.5 -19h-182q-36 0 -70 43l-104 127l-105 -127q-34 -43 -71 -43h-180q-24 0 -32.5 19z" />
<glyph unicode="&#x2dc;" horiz-adv-x="974" d="M168 1120v2q0 93 62 159.5t159 66.5q62 0 166 -37q120 -43 145 -47q23 -3 43.5 8t28.5 39q4 12 8 19t15 12.5t28 5.5h95q24 0 24 -41v-2q0 -93 -62 -159.5t-159 -66.5q-62 0 -166 37q-120 43 -145 47q-23 3 -43.5 -8t-28.5 -39q-4 -12 -8 -19t-15 -12.5t-28 -5.5h-94 q-25 0 -25 41z" />
<glyph unicode="&#x2000;" horiz-adv-x="934" />
<glyph unicode="&#x2001;" horiz-adv-x="1868" />
<glyph unicode="&#x2002;" horiz-adv-x="934" />
<glyph unicode="&#x2003;" horiz-adv-x="1868" />
<glyph unicode="&#x2004;" horiz-adv-x="622" />
<glyph unicode="&#x2005;" horiz-adv-x="467" />
<glyph unicode="&#x2006;" horiz-adv-x="311" />
<glyph unicode="&#x2007;" horiz-adv-x="311" />
<glyph unicode="&#x2008;" horiz-adv-x="233" />
<glyph unicode="&#x2009;" horiz-adv-x="373" />
<glyph unicode="&#x200a;" horiz-adv-x="103" />
<glyph unicode="&#x2010;" horiz-adv-x="888" d="M106 467v160q0 33 15 46t45 13h557q30 0 44.5 -13t14.5 -46v-160q0 -33 -14.5 -46t-44.5 -13h-557q-30 0 -45 13t-15 46z" />
<glyph unicode="&#x2011;" horiz-adv-x="888" d="M106 467v160q0 33 15 46t45 13h557q30 0 44.5 -13t14.5 -46v-160q0 -33 -14.5 -46t-44.5 -13h-557q-30 0 -45 13t-15 46z" />
<glyph unicode="&#x2012;" horiz-adv-x="888" d="M106 467v160q0 33 15 46t45 13h557q30 0 44.5 -13t14.5 -46v-160q0 -33 -14.5 -46t-44.5 -13h-557q-30 0 -45 13t-15 46z" />
<glyph unicode="&#x2013;" horiz-adv-x="1165" d="M100 485v160q0 33 15 46.5t45 13.5h846q30 0 44.5 -13t14.5 -47v-160q0 -33 -14.5 -46t-44.5 -13h-846q-30 0 -45 13t-15 46z" />
<glyph unicode="&#x2014;" horiz-adv-x="1566" d="M100 485v160q0 33 15 46.5t45 13.5h1247q30 0 44.5 -13t14.5 -47v-160q0 -33 -14.5 -46t-44.5 -13h-1247q-30 0 -45 13t-15 46z" />
<glyph unicode="&#x2018;" horiz-adv-x="616" d="M135 799v184q0 55 15 96l116 238q21 37 56 37h131q20 0 25.5 -19t-5.5 -39l-113 -211h62q30 0 44.5 -13t14.5 -46v-227q0 -34 -14.5 -47t-44.5 -13h-227q-30 0 -45 13.5t-15 46.5z" />
<glyph unicode="&#x2019;" horiz-adv-x="624" d="M135 750q0 9 6 18l123 233h-57q-39 0 -51.5 12.5t-12.5 53.5v215q0 41 12.5 53.5t51.5 12.5h219q39 0 51 -12.5t12 -53.5v-199q0 -37 -14 -75l-117 -238q-21 -37 -55 -37h-149q-8 0 -13.5 5t-5.5 12z" />
<glyph unicode="&#x201a;" horiz-adv-x="616" d="M135 59v228q0 33 15 46t45 13h227q30 0 44.5 -13t14.5 -46v-185q0 -58 -14 -96l-117 -237q-21 -37 -55 -37h-131q-20 0 -26 18.5t5 38.5l113 211h-61q-30 0 -45 13t-15 46z" />
<glyph unicode="&#x201c;" horiz-adv-x="1118" d="M135 793v184q0 55 15 96l116 238q21 37 56 37h131q20 0 25 -19t-7 -39l-111 -211h62q30 0 44.5 -13t14.5 -46v-227q0 -34 -14.5 -47t-44.5 -13h-227q-30 0 -45 13.5t-15 46.5zM637 793v184q0 57 14 96l117 238q21 37 55 37h131q20 0 26 -19t-5 -39l-113 -211h62 q30 0 44.5 -13t14.5 -46v-227q0 -34 -14.5 -47t-44.5 -13h-228q-30 0 -44.5 13t-14.5 47z" />
<glyph unicode="&#x201d;" horiz-adv-x="1118" d="M135 1061v227q0 33 15 46.5t45 13.5h227q30 0 44.5 -13t14.5 -47v-184q0 -58 -14 -96l-117 -238q-21 -37 -55 -37h-131q-20 0 -26 19t5 39l113 210h-61q-30 0 -45 13.5t-15 46.5zM637 1061v227q0 34 14.5 47t44.5 13h228q30 0 44.5 -13t14.5 -47v-184q0 -58 -14 -96 l-117 -238q-21 -37 -55 -37h-131q-20 0 -25.5 19t6.5 39l111 210h-62q-30 0 -44.5 13t-14.5 47z" />
<glyph unicode="&#x201e;" horiz-adv-x="1118" d="M135 59v228q0 33 15 46t45 13h227q30 0 44.5 -13t14.5 -46v-185q0 -58 -14 -96l-117 -237q-21 -37 -55 -37h-131q-20 0 -26 18.5t5 38.5l113 211h-61q-30 0 -45 13t-15 46zM637 59v228q0 33 14.5 46t44.5 13h228q30 0 44.5 -13t14.5 -46v-185q0 -58 -14 -96l-117 -237 q-21 -37 -55 -37h-131q-20 0 -25.5 18.5t6.5 38.5l111 211h-62q-30 0 -44.5 13t-14.5 46z" />
<glyph unicode="&#x2022;" horiz-adv-x="962" d="M147 731q0 112 77 189t190 77t190.5 -77t77.5 -189q0 -113 -78 -190.5t-190 -77.5t-189.5 77.5t-77.5 190.5z" />
<glyph unicode="&#x2026;" horiz-adv-x="1841" d="M117 57v228q0 33 14.5 46t44.5 13h227q30 0 45 -13t15 -46v-228q0 -33 -15 -46t-45 -13h-227q-30 0 -44.5 13t-14.5 46zM682 57v228q0 33 14.5 46t44.5 13h228q30 0 44.5 -13t14.5 -46v-228q0 -33 -14.5 -46t-44.5 -13h-228q-30 0 -44.5 13t-14.5 46zM1247 57v228 q0 33 15 46t45 13h227q30 0 44.5 -13t14.5 -46v-228q0 -33 -14.5 -46t-44.5 -13h-227q-30 0 -45 13t-15 46z" />
<glyph unicode="&#x202f;" horiz-adv-x="373" />
<glyph unicode="&#x2039;" horiz-adv-x="520" d="M61 532v160q0 34 25 56l281 245q15 16 34 8t19 -32v-181q0 -37 -43 -71l-127 -105l127 -104q43 -34 43 -70v-182q0 -23 -19 -30.5t-34 7.5l-281 244q-25 22 -25 55z" />
<glyph unicode="&#x203a;" horiz-adv-x="503" d="M80 256v182q0 36 43 70l127 104l-127 105q-43 34 -43 71v181q0 24 19 32t34 -8l281 -245q24 -21 24 -56v-160q0 -34 -24 -55l-281 -244q-15 -15 -34 -7.5t-19 30.5z" />
<glyph unicode="&#x205f;" horiz-adv-x="467" />
<glyph unicode="&#x20ac;" horiz-adv-x="1406" d="M72 498v73q0 34 14.5 47t44.5 13h109v98h-109q-30 0 -44.5 13t-14.5 46v74q0 34 14.5 47t44.5 13h109q2 91 36.5 167.5t89.5 128.5t126.5 88.5t146 53t149.5 16.5q97 0 187 -25t164.5 -71.5t123 -122.5t58.5 -170q0 -36 -13.5 -47.5t-50.5 -11.5h-196q-19 0 -30 8.5 t-20 29.5t-12 25q-33 52 -81 75.5t-130 23.5q-92 0 -152.5 -44.5t-70.5 -123.5h269q59 0 59 -60v-74q0 -33 -15 -46t-44 -13h-273v-98h273q59 0 59 -60v-73q0 -60 -59 -60h-271q6 -87 67 -135.5t158 -48.5q88 0 146.5 34.5t69.5 104.5q4 27 7 39t15 23.5t33 11.5h201 q33 0 47 -16.5t14 -53.5q0 -95 -47.5 -177.5t-124 -136t-171 -84t-190.5 -30.5q-75 0 -150.5 16.5t-147.5 53.5t-127.5 89.5t-89 130.5t-33.5 171v8h-109q-30 0 -44.5 13t-14.5 47z" />
<glyph unicode="&#xe000;" horiz-adv-x="1351" d="M0 0v1352h1352v-1352h-1352z" />
</font>
</defs>
</svg>
